<svg width="51" height="38" viewBox="0 0 51 38" fill="none" xmlns="http://www.w3.org/2000/svg">
<path d="M4.24372 30.896C4.24372 33.6746 13.7119 35.9277 25.3914 35.9277C37.0713 35.9277 46.5391 33.675 46.5391 30.896C46.5391 28.1173 37.0713 25.8646 25.3914 25.8646C13.7119 25.8646 4.24372 28.1173 4.24372 30.896Z" fill="black"/>
<path d="M0.50042 30.901C0.50042 30.901 0.510864 31.0043 0.531349 31.2037C0.588211 31.4048 0.677696 31.7108 0.933151 32.0165C1.41438 32.6536 2.40025 33.2996 3.73146 33.882C5.06811 34.4632 6.75386 35.0171 8.7256 35.4942C10.6982 35.9641 12.9505 36.3964 15.4289 36.7C17.907 37.0085 20.61 37.1825 23.4676 37.2146C26.3299 37.2485 29.3385 37.103 32.4433 36.8267C35.5439 36.5302 38.7381 36.1197 41.942 35.4566C43.5433 35.1254 45.1475 34.7178 46.7066 34.1287C47.4855 33.8335 48.259 33.4995 48.9744 33.0274C49.3348 32.7991 49.6713 32.5157 49.9661 32.1791C50.2567 31.845 50.495 31.3964 50.5 30.896L50.4712 30.5573C50.439 30.4323 50.4022 30.3056 50.3616 30.1814L50.2006 29.8662C50.1396 29.7671 50.0685 29.6776 50.0016 29.5836C49.7144 29.2324 49.3829 28.9322 49.0262 28.6884C48.3184 28.1846 47.5495 27.8171 46.7731 27.4927C45.2107 26.868 43.6035 26.4274 41.9993 26.0628C38.7846 25.355 35.5719 24.9699 32.46 24.7232C29.3469 24.4849 26.3241 24.4209 23.4676 24.4958C20.6045 24.5606 17.9045 24.7491 15.4264 25.0681C12.9475 25.3805 10.6957 25.8153 8.72309 26.2877C6.75094 26.7664 5.06517 27.3208 3.72852 27.9032C2.39647 28.4869 1.41145 29.135 0.931057 29.7738C0.675602 30.0807 0.587383 30.3863 0.530941 30.5824C0.510456 30.7889 0.5 30.8956 0.5 30.8956V30.901H0.50042ZM0.597416 30.896C0.597416 30.896 0.608696 30.7965 0.630436 30.6041C0.687298 30.4206 0.770084 30.1355 1.02011 29.8432C1.25633 29.5464 1.61296 29.2278 2.08165 28.9255C2.55201 28.6245 3.13358 28.3439 3.80086 28.0738C5.13416 27.5232 6.84459 27.0984 8.81633 26.72C10.7922 26.3525 13.0475 26.0837 15.5117 25.8859C17.9764 25.6949 20.6539 25.5469 23.4839 25.5134C24.9013 25.4996 26.3579 25.5051 27.8438 25.5356C29.331 25.5703 30.8483 25.6397 32.3898 25.7317C35.4711 25.9257 38.652 26.271 41.822 26.9036C43.4053 27.2192 44.9891 27.6114 46.5076 28.1729C47.2635 28.4551 48.0102 28.7783 48.6696 29.2106C49.0053 29.4197 49.3009 29.673 49.5493 29.9511C49.6044 30.0242 49.6663 30.0945 49.7169 30.1689L49.8482 30.4014C49.8712 30.4745 49.8975 30.5452 49.928 30.6175L49.9485 30.7701L49.9581 30.8471L49.9632 30.8855C49.964 30.8859 49.9678 30.939 49.9665 30.896C49.9761 31.2342 49.8235 31.5758 49.5848 31.8701C49.3444 32.1628 49.053 32.4325 48.7214 32.6574C48.0692 33.1215 47.3275 33.4777 46.5745 33.7896C45.0522 34.3866 43.466 34.8123 41.8801 35.1614C38.6988 35.8391 35.4996 36.1585 32.4074 36.3028C29.3151 36.46 26.3149 36.4316 23.4839 36.3596C20.6493 36.2936 17.9743 36.1314 15.5096 35.9298C13.0454 35.7229 10.791 35.452 8.81466 35.0815C6.84292 34.7019 5.13166 34.2771 3.79836 33.7244C3.13108 33.4535 2.5495 33.1725 2.07956 32.8706C1.61087 32.5671 1.25466 32.2481 1.01886 31.95C0.768417 31.6557 0.687721 31.3718 0.631279 31.1928C0.609119 30.9934 0.597839 30.8905 0.597839 30.8905V30.896H0.597416Z" fill="black"/>
<path d="M3.8506 10.8491L15.9574 0L15.061 5.55899C18.856 4.73409 25.301 4.18346 31.7986 7.50773C41.9403 12.6963 26.8851 34.7567 26.8851 34.7567C24.6466 35.1718 22.718 34.8783 22.718 34.8783C22.718 34.8783 29.7938 16.9416 24.0458 13.9932C20.6768 12.2657 17.6841 12.5228 15.7822 13.0316L17.5294 17.1381L3.8506 10.8491Z" fill="white"/>
<path d="M24.3779 34.0844L25.3558 34.0534L26.3342 33.9506L26.3584 33.9481L26.3735 33.9255C27.4367 32.3083 28.4485 30.6593 29.4256 28.9861C30.3985 27.3108 31.3066 25.595 32.1281 23.8318C32.9459 22.0679 33.6755 20.2517 34.1797 18.351C34.6664 16.4567 35.0029 14.4598 34.6831 12.4396C34.6292 12.182 34.5874 11.9563 34.5167 11.6736C34.4356 11.4387 34.3896 11.2229 34.2801 10.9721C34.178 10.7237 34.0744 10.4766 33.9389 10.2555C33.8214 10.0222 33.663 9.81228 33.5104 9.6003C32.8794 8.76077 31.9433 8.1838 31.0461 7.80501L30.3851 7.50732C30.1627 7.41032 29.9248 7.32837 29.6961 7.23848L29.0037 6.97634L28.3017 6.75768C27.8376 6.60131 27.3618 6.48424 26.886 6.37094C26.414 6.24216 25.9303 6.16607 25.4503 6.07618C24.4887 5.90476 23.5162 5.81404 22.5445 5.75258C22.0596 5.71453 21.5716 5.72875 21.0854 5.71453C20.5908 5.71119 20.1167 5.74212 19.6308 5.75216C19.1471 5.77474 18.6596 5.82992 18.1746 5.86713C17.6913 5.92148 17.2113 5.99758 16.7288 6.05528C16.2493 6.13305 15.7722 6.22795 15.2935 6.31366L13.8741 6.61093L14.0748 6.80158L14.4339 4.65717L14.8123 2.5161L14.916 1.92784L14.459 2.32294L9.86288 6.29903C8.32512 7.61854 6.80159 8.95309 5.2768 10.2868L4.81105 10.694L5.37923 10.965C8.7428 12.5679 12.1244 14.132 15.4959 15.717L16.672 16.2698L16.1673 15.0648L14.9666 12.1979L14.6229 12.9024L15.605 12.6407C15.8972 12.5734 16.2631 12.4768 16.57 12.4254C17.1875 12.3146 17.8435 12.2443 18.4894 12.2376L18.6107 12.2335L18.6412 12.2322L18.6563 12.2318L18.6642 12.2314C18.6951 12.2322 18.6299 12.2297 18.6395 12.2305L18.7027 12.2343L18.956 12.2494L19.4636 12.2774C19.8002 12.2983 20.1497 12.3008 20.4499 12.3752L21.3873 12.5441C21.6992 12.6127 22.009 12.7281 22.3209 12.8171C22.9555 12.9735 23.5338 13.2917 24.1383 13.5379L24.2508 13.5868C24.2596 13.5914 24.1985 13.5572 24.2274 13.5739L24.2345 13.5781L24.2479 13.5864L24.275 13.6027L24.3294 13.6353L24.5485 13.7641C24.7103 13.8486 24.8106 13.9389 24.9172 14.0258L25.082 14.155L25.2379 14.3177C25.3412 14.4268 25.452 14.5301 25.5356 14.6593C25.9111 15.1384 26.1845 15.7129 26.3776 16.322C26.5691 16.932 26.7104 17.5705 26.7744 18.2256C26.9316 19.5326 26.8969 20.8772 26.7886 22.213C26.6703 23.5505 26.4604 24.8842 26.2004 26.2087C25.9357 27.5328 25.6226 28.8498 25.2475 30.1501C24.8825 31.4533 24.4544 32.7385 23.9999 34.0133L23.9757 34.081L24.0463 34.0815L24.3779 34.0844ZM24.3762 33.9865L24.0484 33.9807L24.0948 34.0488C24.5698 32.7787 24.995 31.4914 25.4114 30.2003C25.8161 28.9059 26.2008 27.6035 26.5369 26.2856C26.8672 24.9666 27.1444 23.6316 27.3439 22.2778C27.5287 20.9236 27.6486 19.5472 27.5546 18.1541C27.5149 17.4584 27.394 16.7598 27.2084 16.0707C27.0248 15.3813 26.7217 14.7027 26.2794 14.1015C26.1799 13.9439 26.0482 13.8084 25.9223 13.6692L25.7304 13.4614L25.5017 13.2691C25.3474 13.1391 25.1894 13.0103 25.0506 12.935L24.8349 12.8008L24.6961 12.718L24.5765 12.6637C23.9318 12.3886 23.3143 12.0453 22.6307 11.8647C22.2924 11.7635 21.9655 11.6385 21.6185 11.5578L20.5578 11.3559C20.1969 11.2714 19.8658 11.2673 19.5267 11.2422L19.02 11.2083L18.7666 11.192L18.7035 11.1882L18.655 11.1874L18.6387 11.1878L18.6057 11.1891L18.4731 11.1932C17.7645 11.2037 17.0692 11.276 16.3538 11.4073C15.9938 11.4717 15.7037 11.5507 15.3366 11.6368L14.3553 11.9002L13.7746 12.0562L14.0112 12.6052L15.2438 15.4587L15.9148 14.8064C12.5165 13.2791 9.12829 11.7305 5.72165 10.2208L5.82367 10.8989C7.31585 9.52923 8.80928 8.16039 10.2889 6.77608L14.7437 2.64195L14.3904 2.44921L14.0764 4.60073L13.7432 6.74931L13.7052 6.99307L13.9439 6.93997L15.3592 6.62556C15.8308 6.53567 16.3011 6.43575 16.7744 6.35338C17.2502 6.28732 17.726 6.21374 18.2035 6.16649C18.6822 6.13388 19.1563 6.08371 19.6384 6.06489C20.1188 6.05946 20.6104 6.02893 21.0816 6.04817C21.5612 6.07451 22.042 6.07158 22.519 6.12134C23.4752 6.19868 24.4256 6.33833 25.36 6.5411C25.8266 6.64813 26.2953 6.74096 26.7514 6.88604C27.2117 7.01523 27.6696 7.14818 28.1161 7.31876L28.7896 7.55833L29.4423 7.83594C29.6601 7.93127 29.8775 8.01405 30.0941 8.11899L30.7434 8.44219C31.603 8.84607 32.3384 9.3645 32.8619 10.0903C33.1211 10.4453 33.3373 10.8508 33.4832 11.2497C33.5685 11.4416 33.6237 11.7025 33.6956 11.9253L33.8268 12.578C33.9686 13.484 33.9581 14.4235 33.8615 15.3566C33.7708 16.2915 33.5948 17.2247 33.3695 18.1474C33.1516 19.0727 32.8832 19.9904 32.5742 20.8964C32.2736 21.8053 31.9471 22.7084 31.5863 23.5994C30.868 25.383 30.0514 27.1319 29.1676 28.8469C28.2867 30.564 27.3259 32.2431 26.2769 33.8645L26.3162 33.8394L25.3512 33.9493L24.3762 33.9865Z" fill="black"/>
</svg>
