<svg width="116" height="250" viewBox="0 0 116 250" fill="none" xmlns="http://www.w3.org/2000/svg">
<g opacity="0.3">
<g style="mix-blend-mode:multiply">
<path d="M126.5 1.51465V4.29672C125.332 4.03625 122.508 3.63435 118.032 3.09545C111.777 2.34547 107.63 3.28406 102.959 7.75473C96.6498 13.7905 90.7807 19.2805 82.7488 20.9601C79.0505 21.737 73.931 21.5013 70.1422 21.8246C61.833 22.5342 57.5477 27.4225 49.5581 31.837C48.1792 32.5982 46.8064 33.3684 45.4356 34.1453C41.0961 36.6018 37.1947 39.7455 33.7295 43.5717C33.0883 44.279 32.4833 44.3868 31.9105 43.895C31.4522 43.5043 31.3638 42.77 31.7155 42.2581C31.7477 42.2109 31.7819 42.1682 31.82 42.1256C34.0692 39.714 36.4188 37.5112 38.873 35.5218C43.1281 32.066 48.0707 30.1754 52.5429 27.1239C58.7376 22.9047 63.7063 19.6757 71.1995 19.2244C74.53 19.0223 78.3671 19.1234 81.2614 18.589C86.3185 17.6616 90.8792 15.3712 94.9434 11.7157C98.4789 8.53611 102.541 4.23388 106.137 2.30954C112.338 -0.997985 119.626 0.311094 126.498 1.5124L126.5 1.51465Z" fill="#E1D7C8"/>
</g>
<g style="mix-blend-mode:multiply">
<path d="M126.5 23.881V26.5133C117.716 25.8279 109.646 26.1114 101.631 30.2397C93.8296 34.2541 86.1883 40.8607 78.4353 45.4646C71.3482 49.6665 62.5518 51.5398 54.6283 53.6944C45.978 56.0432 39.2035 60.6292 35.9371 69.5176C33.2391 76.8342 32.1164 84.6487 30.4984 92.3024C28.5211 101.64 25.6892 110.651 22.0025 119.338C19.8262 124.462 17.2338 128.388 14.2252 131.114C9.54983 135.342 5.69668 138.928 2.48709 144.675C2.14603 145.289 1.67505 145.423 1.07617 145.077C0.552407 144.778 0.349397 144.07 0.619401 143.499C0.627521 143.483 0.633583 143.467 0.641704 143.454C3.29099 138.419 5.83677 135.773 10.573 131.35C14.1622 128.001 16.9516 124.657 19.1624 119.876C21.5843 114.627 23.6387 109.217 25.3278 103.651C28.1902 94.2114 30.2345 81.2951 32.3844 72.7573C33.2269 69.4149 34.579 66.2668 36.4446 63.3173C45.1558 49.5348 61.6301 51.0933 74.6268 44.6073C80.1629 41.8409 87.5362 36.5918 92.041 33.2606C98.5313 28.4536 105.407 25.3925 112.667 24.0774C116.958 23.3049 121.938 23.6756 126.498 23.8832L126.5 23.881Z" fill="#E1D7C8"/>
</g>
<g style="mix-blend-mode:multiply">
<path d="M126.5 42.3259V45.1088C120.293 45.1223 114.303 46.4129 108.531 48.9829C102.284 51.759 95.9158 55.3284 89.9902 57.6609C84.2424 59.9172 77.6175 61.9854 72.7569 64.4321C51.5422 75.0909 39.6869 99.2226 35.0628 123.303C34.695 125.221 33.6198 128.748 31.8413 133.881C30.6388 137.354 28.8664 140.341 26.524 142.841C23.929 145.604 19.7111 147.45 16.7463 149.814C13.4642 152.429 11.4149 156.103 10.5963 160.842C8.17718 174.842 10.3296 187.811 20.0891 197.667C20.2245 197.809 20.2467 198.037 20.1437 198.207L19.4625 199.339C19.3352 199.55 19.0785 199.603 18.8886 199.462C18.8886 199.462 18.8866 199.462 18.8846 199.46C15.0628 196.516 11.8352 190.775 10.0486 186.139C6.83922 177.82 6.94433 168.004 8.7976 159.178C10.4205 151.423 15.1234 147.28 21.3643 143.796C27.2233 140.529 29.41 134.909 31.3603 128.172C32.9286 122.763 34.5151 115.23 36.1057 110.002C43.2399 86.5226 56.4271 67.4032 78.048 59.4601C81.0533 58.3555 84.0625 57.2441 87.0718 56.1261C93.6159 53.695 100.892 49.6573 106.055 47.2464C112.597 44.1834 119.412 42.5433 126.498 42.3282L126.5 42.3259Z" fill="#E1D7C8"/>
</g>
<g style="mix-blend-mode:multiply">
<path d="M126.496 67.7803V70.5534C120.034 69.8584 113.85 70.5759 107.946 72.7035C92.4674 78.2857 82.7874 81.8505 78.9081 83.4023C70.3149 86.8367 59.7292 92.3762 53.5479 99.6654C46.577 107.881 48.5166 117.957 45.4514 127.743C43.6949 133.35 41.7675 136.514 37.9615 142.465C35.342 146.568 33.1988 151.05 31.5298 155.91C31.369 156.378 30.8948 156.612 30.4715 156.434C30.4226 156.414 30.3758 156.387 30.3311 156.358L29.7428 155.96C29.5311 155.816 29.4579 155.609 29.523 155.337C30.679 150.461 33.1397 145.855 35.7287 141.75C38.7918 136.899 40.3469 134.432 40.3916 134.346C42.7465 129.841 44.2038 125.262 44.7676 120.604C45.6428 113.322 46.0641 106.404 49.9393 100.729C52.632 96.7799 55.8255 93.5502 59.5175 91.038C73.0239 81.855 88.4273 77.0735 103.501 71.5677C112.015 68.4505 118.279 67.0561 126.5 67.7803H126.496Z" fill="#E1D7C8"/>
</g>
<g style="mix-blend-mode:multiply">
<path d="M126.498 88.235V91.0365C119.205 90.555 112.46 91.8827 106.266 95.0218C96.8954 99.7653 89.3713 104.088 80.3913 106.62C71.5572 109.111 64.3246 110.056 59.4611 118.974C56.3429 124.698 56.0696 131.404 57.7562 137.777C61.982 153.731 69.6944 163.353 79.8265 175.808C85.2813 182.521 90.0537 188.347 98.6388 187.312C100.372 187.105 102.081 186.812 103.766 186.438C104.16 186.353 104.551 186.6 104.685 187.021C105.013 188.036 104.369 188.639 103.553 188.929C95.9134 191.637 89.2802 189.958 83.6513 183.896C78.5245 178.378 73.2924 171.911 67.9551 164.489C56.9908 149.26 45.0627 122.187 66.068 108.697C67.6999 107.65 70.2958 106.687 73.8554 105.807C84.8804 103.093 92.5644 99.277 105.367 92.6815C111.853 89.3444 118.897 87.8614 126.5 88.2372L126.498 88.235Z" fill="#E1D7C8"/>
</g>
<g style="mix-blend-mode:multiply">
<path d="M126.498 116.577V119.367C116.981 118.532 108.365 118.843 99.9005 123.053C95.2108 125.382 90.6365 127.746 86.1775 130.138C85.6276 130.432 85.1786 130.303 84.8285 129.752C84.1282 128.646 84.6308 128.136 85.5535 127.622C92.0267 124.023 97.2642 121.342 101.264 119.572C108.713 116.288 117.736 115.798 126.5 116.579L126.498 116.577Z" fill="#E1D7C8"/>
</g>
<g style="mix-blend-mode:multiply">
<path d="M100.812 166.164C102.707 164.477 104.259 162.065 105.467 158.925C106.984 154.975 108.488 151.005 109.985 147.014C110.44 145.806 111.028 144.683 111.753 143.647C111.919 143.407 112.131 143.337 112.391 143.436L113.004 143.668C113.391 143.817 113.594 144.282 113.457 144.704C113.453 144.718 113.447 144.731 113.443 144.745C111.46 149.926 109.467 155.145 107.462 160.405C106.132 163.881 103.006 169.479 99.2324 168.558C95.9136 167.747 89.4402 155.36 87.6468 152.025C87.3517 151.486 87.5159 150.785 88.0105 150.465C88.104 150.406 88.2038 150.361 88.3077 150.334C88.8792 150.189 89.3571 150.44 89.7457 151.091C92.1584 155.14 94.6127 159.163 97.1127 163.158C97.9918 164.561 98.9789 165.588 100.074 166.239C100.313 166.38 100.604 166.35 100.812 166.164Z" fill="#E1D7C8"/>
</g>
<g style="mix-blend-mode:multiply">
<path d="M126.5 207.28V209.965C121.225 209.142 115.938 208.763 110.639 208.826C105.304 208.893 98.9818 210.033 93.152 210.594C78.0772 212.036 63.1301 204.625 56.1254 189.356C52.455 181.352 50.0627 172.9 48.9507 164.001C48.6144 161.321 48.4645 158.734 48.5071 156.238C48.5111 155.944 48.7015 155.693 48.9649 155.637C50.3362 155.354 50.634 155.818 50.7251 157.27C51.2092 165.34 52.6819 173.187 55.1471 180.809C61.1126 199.268 73.1266 208.362 91.1912 208.093C92.7671 208.07 96.0466 207.743 101.034 207.108C109.908 205.975 117.911 206.076 126.5 207.283V207.28Z" fill="#E1D7C8"/>
</g>
<g style="mix-blend-mode:multiply">
<path d="M126.5 180.827V183.038C122.385 183.335 118.29 183.829 114.216 184.516C113.199 184.687 112.375 184.472 112.516 183.275C112.536 183.101 112.638 182.945 112.792 182.849C113.196 182.615 113.671 182.453 114.221 182.363C118.712 181.654 122.805 181.14 126.5 180.825V180.827Z" fill="#E1D7C8"/>
</g>
<g style="mix-blend-mode:multiply">
<path d="M126.5 229.47V232.102C119.293 231.705 114.191 231.795 111.198 232.372C103.562 233.852 95.3085 236.454 87.5397 235.98C80.2347 235.534 72.6958 233.342 65.7957 230.618C57.0522 227.168 50.7626 222.415 45.4274 214.428C44.06 212.381 42.0496 208.462 39.3942 202.671C36.8324 197.079 34.2339 191.532 31.5989 186.026C31.3791 185.561 31.5378 184.989 31.955 184.747C31.9611 184.745 31.9672 184.741 31.9733 184.738C32.5858 184.4 33.2206 184.563 33.5828 185.248C36.7774 191.381 40.0779 198.326 43.4882 206.083C48.6708 217.88 56.8386 224.634 67.9974 228.776C75.5526 231.583 83.8017 233.692 91.6438 233.243C97.5794 232.905 105.434 230.578 110.281 229.861C114.723 229.204 120.129 229.076 126.5 229.475V229.47Z" fill="#E1D7C8"/>
</g>
<g style="mix-blend-mode:multiply">
<path d="M72.5 251.943H66.5832L64.1454 251.766C55.7125 248.347 47.6753 244.131 40.036 239.122C32.3438 234.088 27.9083 228.152 26.5138 218.686C26.4186 218.041 26.827 217.437 27.4237 217.337C27.447 217.333 27.4703 217.33 27.4935 217.328C28.3844 217.239 28.7527 218.005 28.9325 218.88C31.5608 231.898 38.7452 235.956 49.637 242.034C56.9547 246.119 64.575 249.422 72.5 251.946V251.943Z" fill="#E1D7C8"/>
</g>
<g style="mix-blend-mode:multiply">
<path d="M26.4978 251.946H23.4816C20.6764 247.598 19.0164 242.642 18.504 237.077C18.4631 236.633 18.7366 236.223 19.1521 236.106C19.9077 235.891 20.4546 236.18 20.7969 236.976C20.8271 237.044 20.8464 237.118 20.8551 237.199C21.4643 242.929 23.346 247.844 26.5 251.946H26.4978Z" fill="#E1D7C8"/>
</g>
</g>
<g opacity="0.5">
<path opacity="0.26" d="M88.0016 237.953L88.2502 237.998L112.593 137.172L105.919 132.703L49.7731 156.029L47.5661 168.399L52.9766 186.724L69.8901 182.576L51.4059 231.425L49.6203 242.054L86.1098 248.563L88.0016 237.953Z" fill="black"/>
<path d="M85.0431 230.489L109.385 129.664L102.711 125.193L46.5671 148.519L52.1976 167.634L71.8266 161.473L48.1987 223.916L85.0431 230.489Z" fill="white" stroke="black" stroke-width="0.8506" stroke-miterlimit="10" stroke-linecap="round" stroke-linejoin="round"/>
<path d="M81.4116 224.828L105.919 132.703L101.488 130.187L84.7458 137.635" stroke="black" stroke-width="0.8506" stroke-miterlimit="10" stroke-linecap="round" stroke-linejoin="round"/>
<path d="M46.5671 148.519L44.3603 160.89L49.7708 179.215L66.6827 175.066L71.8266 161.473L52.0621 167.178L46.5671 148.519Z" fill="white" stroke="black" stroke-width="0.8506" stroke-miterlimit="10" stroke-linecap="round" stroke-linejoin="round"/>
<path d="M48.1991 223.916L46.4147 234.544L82.9028 241.053L84.7962 230.444L48.1991 223.916Z" stroke="black" stroke-width="0.8506" stroke-miterlimit="10" stroke-linecap="round" stroke-linejoin="round"/>
<path d="M83.8794 235.584C83.5976 235.788 83.2818 236.019 82.9481 236.254C82.6975 236.402 82.4491 236.555 82.1907 236.689C81.823 236.7 81.4549 236.716 81.0897 236.761C82.0164 235.491 83.11 234.379 84.2804 233.335L84.6113 231.482C82.9773 232.837 81.4567 234.278 80.197 235.975C80.0692 235.85 79.9015 235.761 79.7265 235.773C79.0589 235.821 78.4129 235.917 77.7673 236.016C78.1861 235.69 77.8936 234.86 77.3296 234.975C75.9159 235.261 74.5726 235.676 73.2627 236.2C73.5401 236.013 73.8188 235.827 74.0982 235.645C75.5562 235.258 76.9293 234.956 77.8283 234.68C79.8003 234.073 82.7484 233.606 83.7756 231.616C84.0577 231.545 84.339 231.478 84.6222 231.414L84.7952 230.445L84.122 230.324C83.8517 230.389 83.579 230.447 83.3094 230.517C83.2689 230.52 83.2342 230.505 83.1933 230.516C76.7582 232.03 70.5965 234.294 64.7218 237.268C68.4958 233.696 73.8489 232.183 78.2034 229.268L76.5649 228.975C74.9326 229.986 73.1945 230.84 71.4598 231.688C72.0004 231.325 72.5374 230.957 73.082 230.601C73.7065 230.194 74.6776 229.478 75.7287 228.824L73.9622 228.509C73.2436 229.014 72.5761 229.511 71.9973 229.892C68.7247 232.048 65.5416 234.309 62.0554 236.082C63.7091 234.165 66.0632 232.764 68.1546 231.468C69.8995 230.388 71.6975 229.397 73.5058 228.428L71.0139 227.983C66.6829 230.24 62.6285 233.184 58.316 235.479C59.4483 234.108 61.1754 232.939 62.8774 231.958C64.4113 231.157 65.9452 230.357 67.4791 229.556C68.6434 229.023 69.8387 228.537 70.9891 227.978L68.7256 227.575C67.4001 228.267 66.0745 228.958 64.7506 229.651C64.5835 229.734 64.4214 229.822 64.2576 229.908C60.7164 231.756 57.1752 233.605 53.6339 235.452C56.0094 233.173 58.9107 231.602 61.9609 230.183C63.7675 229.342 66.0708 228.56 68.0132 227.448L66.3108 227.144C64.6464 228.008 62.768 228.701 61.0521 229.402C61.6289 229.045 62.2023 228.684 62.7902 228.343C63.4571 227.955 64.2781 227.435 65.1578 226.938L56.4218 225.38C55.4761 225.936 54.5419 226.521 53.6069 227.12C51.3179 228.586 49.0899 230.138 46.8869 231.725L46.4133 234.541L49.3689 235.068C49.9815 234.368 50.6953 233.709 51.474 233.096C52.893 232.21 54.3171 231.328 55.7713 230.495C56.7411 229.94 57.7367 229.349 58.7502 228.765C59.7142 228.32 60.7034 227.93 61.6984 227.55C61.0995 227.94 60.5439 228.307 60.0516 228.614C56.524 230.814 53.1208 233.182 49.4301 235.08L51.3069 235.415C51.8136 235.136 52.3227 234.863 52.8217 234.572C52.5069 234.875 52.2075 235.196 51.9101 235.521L54.9938 236.072C55.7529 235.676 56.512 235.279 57.271 234.883C56.9141 235.329 56.6233 235.81 56.3894 236.321L58.5382 236.704C59.3506 236.296 60.1704 235.899 60.9729 235.472C60.6004 235.945 60.2714 236.445 59.9746 236.961L62.1684 237.352C62.7219 237.074 63.2697 236.786 63.812 236.491C63.4856 236.802 63.1736 237.133 62.8707 237.478L65.883 238.015C66.5502 237.685 67.2161 237.355 67.8918 237.043C67.4385 237.366 67.0432 237.736 66.7481 238.17L69.2604 238.619C69.7453 238.392 70.221 238.142 70.686 237.868C70.6908 237.9 70.6919 237.935 70.702 237.965C70.7359 238.067 70.7887 238.145 70.8308 238.237C70.5493 238.377 70.2626 238.492 69.983 238.645C69.9413 238.668 69.9107 238.7 69.8801 238.731L74.6529 239.582C75.3387 239.487 76.054 239.325 76.7574 239.131C76.6196 239.258 76.4927 239.392 76.3486 239.514C76.2122 239.604 76.0895 239.719 75.957 239.815L77.5969 240.107C78.326 239.672 79.0896 239.296 79.8792 238.961C80.8882 238.973 81.8991 238.455 82.8535 237.807C83.0741 237.816 83.2836 237.845 83.4716 237.9L83.8794 235.584ZM57.6516 228.067C57.229 228.256 56.8087 228.451 56.3976 228.661C57.5205 228.033 58.6565 227.425 59.8091 226.843C59.0793 227.246 58.3607 227.658 57.6516 228.067ZM72.7014 235.014C72.6476 235.032 72.5868 235.051 72.5316 235.07C72.8642 234.94 73.1979 234.817 73.5327 234.693C73.4735 234.732 73.4143 234.771 73.3551 234.809C73.1381 234.88 72.9182 234.942 72.7014 235.014ZM78.441 237.281C78.0308 237.384 77.6228 237.492 77.2158 237.598C76.7192 237.728 75.3099 238.324 74.285 238.366C74.6005 238.17 74.9122 237.967 75.2172 237.758C76.2997 237.452 77.4171 237.254 78.5541 237.112C78.5158 237.167 78.4811 237.228 78.441 237.281Z" fill="black"/>
<path d="M47.0978 230.481C49.3841 228.444 51.9613 226.714 54.6006 225.057L51.4837 224.501C50.2087 225.302 48.9438 226.123 47.6898 226.961L47.4186 228.581C47.7331 228.369 48.0443 228.153 48.359 227.943C48.0335 228.195 47.7146 228.452 47.3975 228.712L47.0978 230.481Z" fill="black"/>
<path d="M66.2517 167.23C66.815 165.745 67.4106 164.109 68.1226 162.542L66.6248 162.973C66.097 164.234 65.6342 165.514 65.1781 166.716C64.8536 167.573 64.5482 168.434 64.2592 169.301C64.4947 167.351 64.7303 165.402 64.9672 163.452L59.5198 165.024C58.7568 169.144 57.9937 173.263 57.2307 177.383L58.5237 177.066C59.3689 172.816 60.4822 168.646 61.8858 164.562C61.1416 168.638 60.3972 172.713 59.6531 176.789L60.987 176.461C62.181 172.61 62.6642 168.576 63.6233 164.676C63.1609 168.502 62.6974 172.329 62.235 176.155L63.6508 175.808C64.3455 172.901 65.189 170.033 66.2517 167.23Z" fill="black"/>
<path d="M55.6512 177.585C56.4634 174.23 57.5589 170.709 58.3558 167.178C58.5923 166.497 58.8407 165.82 59.0982 165.147L55.6596 166.14C54.6161 168.387 53.6681 170.677 52.8515 173.021C52.1928 174.913 51.7307 176.927 51.1419 178.879L52.4719 178.553C52.9483 176.868 53.3601 175.158 53.9251 173.535C54.0633 173.139 54.2165 172.749 54.3608 172.357C53.8628 174.376 53.4003 176.405 52.945 178.436L54.3553 178.09C54.3981 177.933 54.441 177.777 54.4838 177.62C54.5214 177.794 54.6415 177.915 54.789 177.983L55.5611 177.794C55.6002 177.734 55.6309 177.666 55.6512 177.585Z" fill="black"/>
<path d="M71.3458 162.746C71.3989 162.358 71.439 161.969 71.4675 161.577L68.8379 162.336C68.6681 163.018 68.4852 163.698 68.2947 164.374C66.9776 167.954 65.972 171.63 65.2736 175.411L66.5695 175.093C67.3051 171.597 68.4428 168.205 69.4144 164.772C69.6431 164.152 69.8808 163.534 70.1287 162.92C69.5754 166.631 68.0032 170.152 67.1505 173.828L71.3458 162.746Z" fill="black"/>
<path d="M52.6947 169.313C52.7705 169.085 52.7059 168.854 52.576 168.687C52.7694 168.087 52.9448 167.479 53.1261 166.873L52.0621 167.179L51.9394 166.761C51.6611 167.698 51.3738 168.633 51.058 169.556C49.884 171.306 49.1827 173.234 48.6014 175.254L49.1758 177.2C49.2417 177.149 49.3001 177.086 49.3407 176.999C49.4175 176.834 49.4824 176.664 49.5589 176.497C49.4838 176.954 49.4274 177.414 49.3755 177.874L49.7707 179.215L50.4758 179.042C50.6657 175.734 51.6328 172.524 52.6947 169.313Z" fill="black"/>
<path d="M51.9023 166.635L51.2309 164.357C49.8266 166.417 48.5867 168.591 47.2567 170.702L48.2139 173.943C49.3607 171.463 50.56 169.011 51.9023 166.635Z" fill="black"/>
<path d="M46.7303 162.928C46.3052 163.316 45.8439 163.792 45.3595 164.274L45.7534 165.606C46.7314 164.693 47.6388 163.697 48.4952 162.915C49.1031 162.361 49.7109 161.806 50.3189 161.253L49.9474 159.994C48.8746 160.972 47.8032 161.95 46.7303 162.928Z" fill="black"/>
<path d="M47.6618 152.238C46.9247 152.976 46.1994 153.727 45.4988 154.5L45.0946 156.765C45.1861 156.66 45.2786 156.551 45.3689 156.447C46.2268 155.441 47.1216 154.474 48.0414 153.531L47.6618 152.238Z" fill="black"/>
<path d="M44.8224 162.458L45.2522 163.915C46.6913 162.356 48.237 160.894 49.779 159.428L48.6528 155.602C48.1103 156.046 47.5746 156.498 47.0517 156.969C46.2141 157.725 45.4257 158.544 44.6323 159.359L44.3587 160.888L44.6802 161.976C45.8782 160.554 47.1757 159.219 48.5549 157.956C48.1487 158.394 47.7392 158.829 47.3468 159.284C46.4739 160.293 45.6652 161.39 44.8224 162.458Z" fill="black"/>
<path d="M47.0681 170.06C48.2175 167.924 49.6314 165.927 51.1176 163.97L50.3791 161.463C48.8719 163.039 47.365 164.617 45.9489 166.271L46.4658 168.023C47.0118 167.406 47.559 166.787 48.105 166.17C47.5797 166.934 47.0792 167.711 46.608 168.505L47.0681 170.06Z" fill="black"/>
</g>
</svg>
