<svg width="116" height="250" viewBox="0 0 116 250" fill="none" xmlns="http://www.w3.org/2000/svg">
<g opacity="0.3">
<g style="mix-blend-mode:multiply">
<path d="M126.5 1.51465V4.29672C125.332 4.03625 122.508 3.63435 118.032 3.09545C111.777 2.34547 107.63 3.28406 102.959 7.75473C96.6498 13.7905 90.7807 19.2805 82.7488 20.9601C79.0505 21.737 73.931 21.5013 70.1422 21.8246C61.833 22.5342 57.5477 27.4225 49.5581 31.837C48.1792 32.5982 46.8064 33.3684 45.4356 34.1453C41.0961 36.6018 37.1947 39.7455 33.7295 43.5717C33.0883 44.279 32.4833 44.3868 31.9105 43.895C31.4522 43.5043 31.3638 42.77 31.7155 42.2581C31.7477 42.2109 31.7819 42.1682 31.82 42.1256C34.0692 39.714 36.4188 37.5112 38.873 35.5218C43.1281 32.066 48.0707 30.1754 52.5429 27.1239C58.7376 22.9047 63.7063 19.6757 71.1995 19.2244C74.53 19.0223 78.3671 19.1234 81.2614 18.589C86.3185 17.6616 90.8792 15.3712 94.9434 11.7157C98.4789 8.53611 102.541 4.23388 106.137 2.30954C112.338 -0.997985 119.626 0.311094 126.498 1.5124L126.5 1.51465Z" fill="#E1D7C8"/>
</g>
<g style="mix-blend-mode:multiply">
<path d="M126.5 23.881V26.5133C117.716 25.8279 109.646 26.1114 101.631 30.2397C93.8296 34.2541 86.1883 40.8607 78.4353 45.4646C71.3482 49.6665 62.5518 51.5398 54.6283 53.6944C45.978 56.0432 39.2035 60.6292 35.9371 69.5176C33.2391 76.8342 32.1164 84.6487 30.4984 92.3024C28.5211 101.64 25.6892 110.651 22.0025 119.338C19.8262 124.462 17.2338 128.388 14.2252 131.114C9.54983 135.342 5.69668 138.928 2.48709 144.675C2.14603 145.289 1.67505 145.423 1.07617 145.077C0.552407 144.778 0.349397 144.07 0.619401 143.499C0.627521 143.483 0.633583 143.467 0.641704 143.454C3.29099 138.419 5.83677 135.773 10.573 131.35C14.1622 128.001 16.9516 124.657 19.1624 119.876C21.5843 114.627 23.6387 109.217 25.3278 103.651C28.1902 94.2114 30.2345 81.2951 32.3844 72.7573C33.2269 69.4149 34.579 66.2668 36.4446 63.3173C45.1558 49.5348 61.6301 51.0933 74.6268 44.6073C80.1629 41.8409 87.5362 36.5918 92.041 33.2606C98.5313 28.4536 105.407 25.3925 112.667 24.0774C116.958 23.3049 121.938 23.6756 126.498 23.8832L126.5 23.881Z" fill="#E1D7C8"/>
</g>
<g style="mix-blend-mode:multiply">
<path d="M126.5 42.3259V45.1088C120.293 45.1223 114.303 46.4129 108.531 48.9829C102.284 51.759 95.9158 55.3284 89.9902 57.6609C84.2424 59.9172 77.6175 61.9854 72.7569 64.4321C51.5422 75.0909 39.6869 99.2226 35.0628 123.303C34.695 125.221 33.6198 128.748 31.8413 133.881C30.6388 137.354 28.8664 140.341 26.524 142.841C23.929 145.604 19.7111 147.45 16.7463 149.814C13.4642 152.429 11.4149 156.103 10.5963 160.842C8.17718 174.842 10.3296 187.811 20.0891 197.667C20.2245 197.809 20.2467 198.037 20.1437 198.207L19.4625 199.339C19.3352 199.55 19.0785 199.603 18.8886 199.462C18.8886 199.462 18.8866 199.462 18.8846 199.46C15.0628 196.516 11.8352 190.775 10.0486 186.139C6.83922 177.82 6.94433 168.004 8.7976 159.178C10.4205 151.423 15.1234 147.28 21.3643 143.796C27.2233 140.529 29.41 134.909 31.3603 128.172C32.9286 122.763 34.5151 115.23 36.1057 110.002C43.2399 86.5226 56.4271 67.4032 78.048 59.4601C81.0533 58.3555 84.0625 57.2441 87.0718 56.1261C93.6159 53.695 100.892 49.6573 106.055 47.2464C112.597 44.1834 119.412 42.5433 126.498 42.3282L126.5 42.3259Z" fill="#E1D7C8"/>
</g>
<g style="mix-blend-mode:multiply">
<path d="M126.496 67.7803V70.5534C120.034 69.8584 113.85 70.5759 107.946 72.7035C92.4674 78.2857 82.7874 81.8505 78.9081 83.4023C70.3149 86.8367 59.7292 92.3762 53.5479 99.6654C46.577 107.881 48.5166 117.957 45.4514 127.743C43.6949 133.35 41.7675 136.514 37.9615 142.465C35.342 146.568 33.1988 151.05 31.5298 155.91C31.369 156.378 30.8948 156.612 30.4715 156.434C30.4226 156.414 30.3758 156.387 30.3311 156.358L29.7428 155.96C29.5311 155.816 29.4579 155.609 29.523 155.337C30.679 150.461 33.1397 145.855 35.7287 141.75C38.7918 136.899 40.3469 134.432 40.3916 134.346C42.7465 129.841 44.2038 125.262 44.7676 120.604C45.6428 113.322 46.0641 106.404 49.9393 100.729C52.632 96.7799 55.8255 93.5502 59.5175 91.038C73.0239 81.855 88.4273 77.0735 103.501 71.5677C112.015 68.4505 118.279 67.0561 126.5 67.7803H126.496Z" fill="#E1D7C8"/>
</g>
<g style="mix-blend-mode:multiply">
<path d="M126.498 88.235V91.0365C119.205 90.555 112.46 91.8827 106.266 95.0218C96.8954 99.7653 89.3713 104.088 80.3913 106.62C71.5572 109.111 64.3246 110.056 59.4611 118.974C56.3429 124.698 56.0696 131.404 57.7562 137.777C61.982 153.731 69.6944 163.353 79.8265 175.808C85.2813 182.521 90.0537 188.347 98.6388 187.312C100.372 187.105 102.081 186.812 103.766 186.438C104.16 186.353 104.551 186.6 104.685 187.021C105.013 188.036 104.369 188.639 103.553 188.929C95.9134 191.637 89.2802 189.958 83.6513 183.896C78.5245 178.378 73.2924 171.911 67.9551 164.489C56.9908 149.26 45.0627 122.187 66.068 108.697C67.6999 107.65 70.2958 106.687 73.8554 105.807C84.8804 103.093 92.5644 99.277 105.367 92.6815C111.853 89.3444 118.897 87.8614 126.5 88.2372L126.498 88.235Z" fill="#E1D7C8"/>
</g>
<g style="mix-blend-mode:multiply">
<path d="M126.498 116.577V119.367C116.981 118.532 108.365 118.843 99.9005 123.053C95.2108 125.382 90.6365 127.746 86.1775 130.138C85.6276 130.432 85.1786 130.303 84.8285 129.752C84.1282 128.646 84.6308 128.136 85.5535 127.622C92.0267 124.023 97.2642 121.342 101.264 119.572C108.713 116.288 117.736 115.798 126.5 116.579L126.498 116.577Z" fill="#E1D7C8"/>
</g>
<g style="mix-blend-mode:multiply">
<path d="M100.812 166.164C102.707 164.477 104.259 162.065 105.467 158.925C106.984 154.975 108.488 151.005 109.985 147.014C110.44 145.806 111.028 144.683 111.753 143.647C111.919 143.407 112.131 143.337 112.391 143.436L113.004 143.668C113.391 143.817 113.594 144.282 113.457 144.704C113.453 144.718 113.447 144.731 113.443 144.745C111.46 149.926 109.467 155.145 107.462 160.405C106.132 163.881 103.006 169.479 99.2324 168.558C95.9136 167.747 89.4402 155.36 87.6468 152.025C87.3517 151.486 87.5159 150.785 88.0105 150.465C88.104 150.406 88.2038 150.361 88.3077 150.334C88.8792 150.189 89.3571 150.44 89.7457 151.091C92.1584 155.14 94.6127 159.163 97.1127 163.158C97.9918 164.561 98.9789 165.588 100.074 166.239C100.313 166.38 100.604 166.35 100.812 166.164Z" fill="#E1D7C8"/>
</g>
<g style="mix-blend-mode:multiply">
<path d="M126.5 207.28V209.965C121.225 209.142 115.938 208.763 110.639 208.826C105.304 208.893 98.9818 210.033 93.152 210.594C78.0772 212.036 63.1301 204.625 56.1254 189.356C52.455 181.352 50.0627 172.9 48.9507 164.001C48.6144 161.321 48.4645 158.734 48.5071 156.238C48.5111 155.944 48.7015 155.693 48.9649 155.637C50.3362 155.354 50.634 155.818 50.7251 157.27C51.2092 165.34 52.6819 173.187 55.1471 180.809C61.1126 199.268 73.1266 208.362 91.1912 208.093C92.7671 208.07 96.0466 207.743 101.034 207.108C109.908 205.975 117.911 206.076 126.5 207.283V207.28Z" fill="#E1D7C8"/>
</g>
<g style="mix-blend-mode:multiply">
<path d="M126.5 180.827V183.038C122.385 183.335 118.29 183.829 114.216 184.516C113.199 184.687 112.375 184.472 112.516 183.275C112.536 183.101 112.638 182.945 112.792 182.849C113.196 182.615 113.671 182.453 114.221 182.363C118.712 181.654 122.805 181.14 126.5 180.825V180.827Z" fill="#E1D7C8"/>
</g>
<g style="mix-blend-mode:multiply">
<path d="M126.5 229.47V232.102C119.293 231.705 114.191 231.795 111.198 232.372C103.562 233.852 95.3085 236.454 87.5397 235.98C80.2347 235.534 72.6958 233.342 65.7957 230.618C57.0522 227.168 50.7626 222.415 45.4274 214.428C44.06 212.381 42.0496 208.462 39.3942 202.671C36.8324 197.079 34.2339 191.532 31.5989 186.026C31.3791 185.561 31.5378 184.989 31.955 184.747C31.9611 184.745 31.9672 184.741 31.9733 184.738C32.5858 184.4 33.2206 184.563 33.5828 185.248C36.7774 191.381 40.0779 198.326 43.4882 206.083C48.6708 217.88 56.8386 224.634 67.9974 228.776C75.5526 231.583 83.8017 233.692 91.6438 233.243C97.5794 232.905 105.434 230.578 110.281 229.861C114.723 229.204 120.129 229.076 126.5 229.475V229.47Z" fill="#E1D7C8"/>
</g>
<g style="mix-blend-mode:multiply">
<path d="M72.5 251.943H66.5832L64.1454 251.766C55.7125 248.347 47.6753 244.131 40.036 239.122C32.3438 234.088 27.9083 228.152 26.5138 218.686C26.4186 218.041 26.827 217.437 27.4237 217.337C27.447 217.333 27.4703 217.33 27.4935 217.328C28.3844 217.239 28.7527 218.005 28.9325 218.88C31.5608 231.898 38.7452 235.956 49.637 242.034C56.9547 246.119 64.575 249.422 72.5 251.946V251.943Z" fill="#E1D7C8"/>
</g>
<g style="mix-blend-mode:multiply">
<path d="M26.4978 251.946H23.4816C20.6764 247.598 19.0164 242.642 18.504 237.077C18.4631 236.633 18.7366 236.223 19.1521 236.106C19.9077 235.891 20.4546 236.18 20.7969 236.976C20.8271 237.044 20.8464 237.118 20.8551 237.199C21.4643 242.929 23.346 247.844 26.5 251.946H26.4978Z" fill="#E1D7C8"/>
</g>
</g>
<g opacity="0.5">
<path opacity="0.26" d="M84.7103 221.714C91.8736 210.518 84.4401 201.062 77.8582 195.249C85.8854 193.649 98.0359 188.124 105.694 171.514C106.204 170.56 106.628 169.578 106.96 168.574C106.971 168.547 106.983 168.521 106.994 168.492C106.991 168.491 106.99 168.489 106.987 168.488C108.062 165.175 108.101 161.619 106.61 157.994C102.015 145.879 81.7292 135.662 62.92 130.749C57.4913 132.128 52.1037 133.288 46.7161 134.44C43.2593 140.955 39.7942 147.516 36.2866 154.311C36.3675 153.869 58.5677 156.989 56.7275 164.838C54.9627 172.267 39.7174 167.609 39.6735 167.845C37.8388 171.392 35.9945 174.99 34.1378 178.653C34.2119 178.25 51.2316 190.148 47.6472 197.241C45.7426 200.656 36.8638 198.756 29.3865 196.635C29.1822 196.519 28.9779 196.402 28.7722 196.284C28.7475 196.335 28.7215 196.386 28.6968 196.436C23.1323 194.831 18.5071 193.187 18.4166 193.686C13.1209 204.965 7.73476 216.736 2.50488 227.647C2.55973 227.365 65.1414 259.22 84.7103 221.714Z" fill="black"/>
<path d="M60.9151 123C55.4864 124.379 50.0989 125.54 44.7113 126.691C41.2544 133.206 37.7893 139.767 34.2817 146.562C34.3626 146.12 56.5628 149.24 54.7226 157.089C52.9579 164.518 37.7125 159.86 37.6686 160.096C35.8339 163.643 33.9896 167.241 32.133 170.904C32.207 170.501 49.2267 182.399 45.6423 189.492C42.2417 195.586 16.6271 184.756 16.4118 185.938C11.1161 197.218 5.72988 208.989 0.5 219.9C0.550736 219.616 63.1955 251.504 82.7314 213.911C77.5866 205.964 72.5898 197.193 67.726 187.693C67.567 188.568 93.1898 190.53 104.987 160.743C89.6123 151.932 75.7135 134.985 60.9151 123Z" fill="white" stroke="black" stroke-width="0.7473" stroke-miterlimit="10" stroke-linecap="round" stroke-linejoin="round"/>
<path d="M45.4678 184.487C45.6296 184.876 45.7598 185.261 45.8654 185.641C54.9224 186.222 63.8985 187.431 73.0707 187.821C74.7134 187.702 76.6537 187.422 78.7832 186.842C67.4664 186.845 56.5309 185.179 45.4678 184.487Z" fill="black"/>
<path d="M16.9505 186.066C16.7311 186.112 16.509 186.158 16.2868 186.206C16.099 186.606 15.9125 187.005 15.7246 187.407C16.9724 187.134 18.2134 186.893 19.4503 186.677C18.33 186.395 17.4647 186.188 16.9505 186.066Z" fill="black"/>
<path d="M15.4158 225.886C16.6266 225.619 17.8361 225.35 19.0482 225.102C19.0071 225.352 19.1374 225.615 19.3376 225.744C19.9793 226.161 20.6512 226.481 21.3368 226.727C21.3409 226.73 21.3409 226.734 21.345 226.735C22.7286 227.418 24.1506 227.909 25.5931 228.248C24.5551 228.243 23.5198 228.224 22.4832 228.206C25.7494 229.173 29.2365 230.044 32.8428 230.71C34.3361 230.671 35.8253 230.595 37.313 230.479C37.8684 230.488 38.4265 230.498 38.9818 230.51C38.4992 230.804 38.0316 231.123 37.5695 231.458C38.1207 231.529 38.6733 231.596 39.2273 231.658C39.8539 231.26 40.4943 230.89 41.1662 230.57C46.4084 230.731 51.6274 231.081 56.8339 231.558C58.0557 231.384 59.261 231.163 60.4499 230.9C54.6701 230.282 48.8808 229.793 43.0599 229.539C43.0914 229.434 43.0955 229.321 43.0695 229.214C50.0765 229.179 57.0382 229.395 63.9876 229.953C64.7734 229.705 65.5508 229.439 66.3146 229.14C55.8672 228.152 45.3882 228.027 34.8147 228.187C35.4907 228.025 36.1653 227.835 36.8359 227.607C37.4625 227.396 37.1814 226.536 36.6123 226.506C34.4911 226.398 32.4891 226.757 30.6118 227.598C29.0692 227.643 27.5362 227.488 26.0223 227.141C28.1985 226.776 30.2841 225.67 31.9378 223.909C32.2107 223.618 32.0366 223.022 31.6485 222.966C44.9549 221.128 58.0735 221.485 71.3471 220.907C72.0395 220.872 71.9257 219.898 71.2387 219.893C59.032 219.762 47.0036 218.653 34.779 218.617C32.3903 218.126 29.9866 217.791 27.565 217.596C45.9162 214.657 63.6819 216.877 82.2456 214.814C82.4088 214.512 82.5761 214.218 82.7338 213.909C82.6172 213.728 82.5006 213.545 82.3827 213.363C70.4914 213.841 59.0032 212.096 47.4314 210.812C47.8427 210.601 47.6988 209.774 47.1091 209.75C44.5065 209.644 41.9026 209.602 39.2904 209.586C39.4782 209.292 39.3438 208.732 38.953 208.666C35.4729 208.075 31.9803 207.55 28.4672 207.136C44.7849 204.524 60.5664 206.098 76.9307 204.495C76.6619 204.038 76.3932 203.579 76.1258 203.118C58.1668 202.555 40.966 199.114 22.8671 201.061C23.0262 200.919 23.1811 200.779 23.3374 200.641C32.2244 199.151 40.9208 198.699 49.5623 198.558C57.5963 198.796 65.5961 199.276 73.7481 198.946C73.4807 198.467 73.2147 197.987 72.9473 197.505C67.5158 197.543 62.157 197.297 56.8147 197.108C53.8254 196.654 50.8403 196.199 47.8496 195.788C55.9536 195.819 64.026 196.342 72.2589 196.251C72.0505 195.869 71.8407 195.485 71.6336 195.099C58.7564 194.829 46.2082 192.742 33.2844 192.72C33.6601 192.445 34.0358 192.17 34.4088 191.896C38.0247 191.76 41.616 191.799 45.1976 191.936C53.8871 192.763 62.4971 194.026 71.2661 194.418C70.8836 193.706 70.501 192.99 70.1198 192.271C63.867 191.567 57.6909 190.574 51.5026 189.778C53.99 189.778 56.476 189.804 58.9676 189.835C62.3202 190.035 65.6784 190.2 69.0585 190.253C68.8075 189.774 68.558 189.292 68.307 188.81C65.1477 188.825 62.0076 188.767 58.877 188.722C54.6166 188.461 50.3644 188.15 46.0958 187.935C46.0382 188.476 45.8997 188.999 45.646 189.491C43.4685 193.719 33.1445 190.29 25.2832 188.216C22.7752 188.465 20.2481 188.811 17.7003 189.272C17.2478 189.354 17.1271 189.817 17.2835 190.112C16.2523 190.288 15.2198 190.496 14.1804 190.716C13.9047 191.308 13.6278 191.9 13.3508 192.494C16.698 191.917 20.0109 191.541 23.2922 191.331C21.6097 191.719 19.9258 192.183 18.231 192.671C16.3771 193.052 14.5163 193.51 12.6432 194.013C12.2085 194.947 11.7738 195.881 11.3392 196.816C16.953 195.801 22.4763 195.352 27.9283 195.348C27.6445 195.568 27.3634 195.792 27.0795 196.015C21.3615 196.908 15.5776 198.329 9.72796 200.28C9.05743 201.721 8.3869 203.162 7.71637 204.601C8.75028 204.376 9.78282 204.162 10.814 203.962C10.6988 204.188 10.5946 204.42 10.4725 204.642C9.38515 204.521 8.40061 204.699 7.49971 205.068C7.13633 205.848 6.7716 206.629 6.40822 207.406C7.18297 207.371 7.9577 207.342 8.72971 207.32C7.47777 209.015 5.9941 210.527 4.33216 211.837C3.59444 213.407 2.85809 214.967 2.12448 216.511C2.55642 216.343 2.97191 216.145 3.38191 215.943C2.79639 216.573 2.26023 217.252 1.79401 217.983C1.6706 217.984 1.54719 217.983 1.42378 217.984C1.251 218.345 1.07961 218.704 0.908203 219.063C1.01653 219.063 1.12485 219.067 1.23454 219.067C1.23592 219.267 1.36757 219.454 1.54446 219.544C4.20739 220.918 7.28168 221.179 10.1242 220.327C10.8387 220.954 11.66 221.225 12.5266 221.253C11.9247 221.877 11.3542 222.553 10.8222 223.281C10.5493 223.655 10.7262 224.117 11.1253 224.224C11.7327 224.388 12.3402 224.51 12.949 224.597C12.7241 224.638 12.4924 224.68 12.2661 224.721C13.2644 225.101 14.3161 225.493 15.4158 225.886ZM38.7186 229.251C38.2332 229.297 37.7491 229.316 37.2637 229.353C36.4012 229.335 35.5373 229.321 34.6734 229.31C36.0227 229.29 37.3707 229.269 38.7186 229.251ZM69.0722 193.221C64.34 192.927 59.6504 192.409 54.9622 191.877C54.9101 191.632 54.7304 191.387 54.4301 191.337C53.5361 191.189 52.6434 191.056 51.7494 190.914C57.5086 191.652 63.2595 192.548 69.0722 193.221ZM18.3996 223.127C18.0952 223.075 17.7894 223.022 17.4864 222.946C19.0318 222.065 20.6334 221.583 22.3282 221.497C21.0708 222.251 19.7517 222.786 18.3996 223.127ZM21.559 225.539C21.1997 225.404 20.8446 225.251 20.4963 225.066C20.6101 224.955 20.7239 224.847 20.8404 224.744C21.9018 224.536 22.9617 224.338 24.0231 224.149C23.188 224.527 22.3666 224.991 21.559 225.539ZM23.0234 225.947C25.2722 224.622 27.6678 223.978 30.1813 224.02C28.1011 225.727 25.5095 226.403 23.0234 225.947ZM39.5056 219.816C44.2789 219.905 49.033 220.102 53.7829 220.32C48.346 220.44 42.9049 220.662 37.4419 221.167C38.0837 221.071 38.7241 220.979 39.3644 220.888C39.9225 220.81 40.0075 220.056 39.5056 219.816ZM75.2208 214.427C57.2576 215.267 39.7744 213.751 21.7413 217.346C20.946 217.339 20.1493 217.339 19.3499 217.349C19.2292 217.154 19.0098 217.035 18.7397 217.136C18.5518 217.208 18.3722 217.291 18.1885 217.367C17.1491 217.389 16.1083 217.419 15.0662 217.459C16.0713 217.002 17.0476 216.428 17.9759 215.704C18.4229 215.354 18.1748 214.596 17.6318 214.657C17.4795 214.674 17.3301 214.704 17.1792 214.726C17.2409 214.419 17.123 214.09 16.7761 214.051C16.4991 214.021 16.2262 214.016 15.952 214.006C16.2427 213.71 16.4525 213.42 16.6308 213.127C21.3629 212.404 26.0484 211.712 30.6804 211.022C32.3629 210.923 34.0399 210.855 35.7169 210.811C48.9356 211.732 61.9034 214.043 75.2208 214.427ZM26.686 218.682C24.3563 218.735 22.0224 218.82 19.6831 218.933C20.4099 218.79 21.1366 218.637 21.862 218.504C23.4759 218.523 25.0844 218.572 26.686 218.682ZM16.1467 210.498C16.1549 210.457 16.1673 210.416 16.1769 210.376C18.4833 210.295 20.7815 210.267 23.0687 210.282C21.1215 210.47 19.1675 210.677 17.2094 210.941C17.2012 210.629 16.8831 210.476 16.6308 210.476C16.4703 210.478 16.3099 210.494 16.1467 210.498ZM35.2329 209.205C34.5788 209.305 33.9234 209.403 33.2665 209.503C28.1779 209.175 23.0536 209.045 17.8799 209.183C20.0095 208.686 22.1335 208.237 24.2507 207.849C27.9338 208.184 31.5909 208.651 35.2329 209.205ZM16.9214 208.256C17.0586 207.963 17.208 207.672 17.3699 207.388C18.2584 207.425 19.1456 207.472 20.03 207.527C18.9934 207.752 17.9595 208.004 16.9214 208.256ZM70.5874 203.933C55.0691 204.647 39.8992 203.648 24.2109 206.693C22.1705 206.509 20.1233 206.368 18.0664 206.278C19.0428 204.852 20.2522 203.535 21.4849 202.346C38.1989 200.399 54.1682 202.885 70.5874 203.933ZM21.1366 201.245C20.0712 201.365 19.0044 201.499 17.9334 201.648C19.0935 201.407 20.2508 201.182 21.4054 200.975C21.3135 201.063 21.2271 201.156 21.1366 201.245ZM49.3799 194.663C46.0944 194.619 42.8089 194.651 39.5084 194.799C36.7481 194.537 33.9782 194.349 31.1919 194.268C31.3783 194.13 31.5635 193.991 31.7486 193.853C37.6833 193.808 43.5412 194.182 49.3799 194.663ZM31.7513 195.418C30.93 195.509 30.1072 195.6 29.2831 195.711C29.4339 195.596 29.5834 195.478 29.7343 195.364C30.4075 195.374 31.0808 195.394 31.7513 195.418ZM32.3629 191.991C32.0324 192.235 31.7006 192.48 31.3688 192.726C27.735 192.764 24.0724 192.964 20.3687 193.378C24.4056 192.657 28.4 192.212 32.3629 191.991ZM19.1648 194.635C22.7519 194.2 26.3034 193.964 29.8261 193.883C29.6753 193.997 29.5244 194.113 29.375 194.227C26.0004 194.188 22.5984 194.31 19.1648 194.635ZM27.5197 197.093C31.5703 196.476 35.5921 196.114 39.5934 195.932C42.3263 196.19 45.0482 196.519 47.766 196.887C42.8323 196.845 37.8862 196.981 32.9032 197.48C30.7627 197.588 28.614 197.739 26.4543 197.958C26.8094 197.666 27.1632 197.377 27.5197 197.093ZM25.3024 197.462C25.0199 197.696 24.7361 197.931 24.4564 198.171C21.7468 198.492 19.0222 198.92 16.277 199.442C19.3033 198.64 22.3118 197.983 25.3024 197.462ZM13.1396 201.197C13.8252 201.051 14.5067 200.911 15.1896 200.776C14.482 200.971 13.7759 201.178 13.0669 201.389C13.0902 201.323 13.1177 201.262 13.1396 201.197ZM12.1057 203.715C14.7055 203.235 17.2903 202.844 19.8614 202.533C19.7366 202.664 19.6022 202.788 19.4788 202.922C18.5354 203.942 17.6249 205.049 16.8652 206.231C16.6307 206.223 16.3976 206.216 16.1632 206.209C16.122 205.895 15.808 205.666 15.4474 205.785C15.0936 205.901 14.7467 206.032 14.4039 206.171C13.3768 206.156 12.3484 206.154 11.3172 206.165C11.3927 205.885 11.4886 205.614 11.549 205.329C11.5778 205.19 11.5449 205.078 11.4859 204.982C11.708 204.568 11.9041 204.14 12.1057 203.715ZM15.6243 208.577C15.1114 208.706 14.5999 208.834 14.0871 208.969C14.5766 208.444 15.0442 207.893 15.4954 207.323C15.7326 207.329 15.9698 207.336 16.2084 207.344C15.9918 207.748 15.7943 208.159 15.6243 208.577ZM15.1018 214.003C15.0497 214.006 14.9976 214.009 14.9455 214.013C14.9702 213.946 14.9962 213.88 15.0196 213.813C15.0401 213.884 15.0648 213.95 15.1018 214.003ZM15.0634 210.419C15.0538 210.463 15.0429 210.508 15.0346 210.552C14.0048 210.63 12.9846 210.781 11.974 210.993C12.1468 210.845 12.3223 210.699 12.491 210.545C13.3494 210.497 14.2078 210.454 15.0634 210.419ZM14.4779 216.466C14.4642 216.478 14.4505 216.493 14.4382 216.506C14.0474 216.674 13.6524 216.818 13.2548 216.943C13.2849 216.907 13.311 216.87 13.3398 216.835C13.71 216.698 14.0926 216.574 14.4779 216.466ZM14.3189 215.411C14.3586 215.34 14.3888 215.263 14.4272 215.192C14.6767 215.167 14.9291 215.151 15.1827 215.145C14.892 215.228 14.6027 215.313 14.3189 215.411ZM12.1633 207.275C11.6052 207.602 11.0704 207.966 10.5507 208.351C10.7043 207.996 10.8661 207.646 10.995 207.279C11.3858 207.276 11.7752 207.275 12.1633 207.275ZM10.7111 202.124C11.0978 201.901 11.4941 201.691 11.8973 201.498C11.8616 201.592 11.8273 201.688 11.7903 201.783C11.4297 201.894 11.0704 202.01 10.7111 202.124ZM13.9075 207.589C12.5294 209.176 10.9813 210.553 9.30426 211.716C8.9642 211.83 8.62549 211.949 8.2868 212.077C8.61041 211.686 8.91347 211.273 9.19868 210.849C10.5891 209.49 12.1838 208.393 13.9075 207.589ZM7.65054 206.263C8.58024 205.705 9.43863 205.373 9.85549 205.644C9.74167 205.828 9.63747 206.016 9.51954 206.197C8.897 206.215 8.27445 206.235 7.65054 206.263ZM9.8788 207.528C9.64157 208.315 9.27821 209.076 8.82844 209.798C7.86995 210.704 7.00059 211.701 6.24778 212.775C6.23407 212.787 6.22036 212.798 6.20664 212.809C5.56216 212.936 4.91494 213.057 4.27046 213.189C6.43426 211.612 8.3293 209.704 9.8788 207.528ZM3.36408 219.093C3.30786 219.073 3.2489 219.056 3.19268 219.036C3.25575 219.034 3.31745 219.034 3.38053 219.033C3.37504 219.053 3.36819 219.073 3.36408 219.093ZM3.68768 217.936C3.48337 217.941 3.28043 217.944 3.07611 217.95C3.40521 217.485 3.77133 217.049 4.15802 216.63C3.98661 217.06 3.82892 217.494 3.68768 217.936ZM6.00371 214.969C6.11204 214.889 6.22857 214.825 6.33827 214.749C8.88191 214.343 11.4201 213.948 13.9445 213.559C13.9198 213.723 13.8677 213.91 13.78 214.131C11.4214 214.5 9.21786 215.612 7.28991 217.411C7.1665 217.526 7.11302 217.671 7.09245 217.815C6.26012 217.851 5.42916 217.887 4.59682 217.914C4.76137 217.12 5.37568 215.982 6.00371 214.969ZM4.92316 218.997C6.11339 218.963 7.30363 218.919 8.49386 218.871C7.40099 219.211 5.69105 219.548 4.92316 218.997ZM11.5764 220.015C11.4653 219.989 11.3597 219.956 11.2624 219.916C11.3858 219.865 11.5065 219.81 11.6299 219.754C11.5956 219.839 11.575 219.927 11.5764 220.015ZM12.5171 216.178C11.778 216.544 11.0553 216.971 10.3533 217.457C9.88292 217.478 9.40846 217.472 8.9299 217.438C10.2079 216.46 11.5901 215.773 13.0546 215.417C12.8832 215.676 12.7159 215.941 12.5171 216.178ZM12.5856 219.271C12.9202 219.084 13.2466 218.879 13.5661 218.659C14.2914 218.63 15.0154 218.604 15.7408 218.58C14.6905 218.809 13.6373 219.025 12.5856 219.271ZM12.2236 223.255C12.9216 222.394 13.6758 221.623 14.4848 220.94C15.0031 220.776 15.5214 220.558 16.0288 220.297C22.283 219.931 28.507 219.736 34.6899 219.761C35.296 219.884 35.9034 220.009 36.5081 220.155C33.3845 220.618 30.2485 221.146 27.1029 221.731C27.0315 221.645 26.9369 221.586 26.8204 221.579C25.77 221.509 24.7745 221.607 23.8297 221.856C24.0354 221.712 24.2479 221.589 24.4481 221.435C24.8088 221.161 24.7347 220.426 24.2521 220.377C21.2024 220.065 18.4298 220.828 15.8025 222.671C15.5475 222.85 15.5009 223.286 15.6819 223.531C14.5383 223.584 13.3823 223.491 12.2236 223.255Z" fill="black"/>
<path d="M43.783 128.441C43.5637 128.857 43.3429 129.271 43.1235 129.686C43.8982 129.45 44.6648 129.221 45.3846 128.99C49.2981 127.728 53.2706 126.602 57.3089 125.522C58.1522 125.297 59.0051 125.103 59.8539 124.883C53.9617 126.503 48.2588 128.293 42.7053 130.477C42.4626 130.935 42.2212 131.393 41.9785 131.853C48.8402 129.077 55.961 126.979 63.3505 125.071C62.6869 124.499 62.0232 123.932 61.3581 123.372C59.5618 123.836 57.7765 124.303 56.0035 124.785C51.861 125.917 47.7939 127.107 43.783 128.441Z" fill="black"/>
<path d="M69.7153 130.742C61.152 132.839 52.6929 134.262 44.1816 135.744C44.0774 135.673 43.9759 135.599 43.8717 135.528C47.4986 134.51 51.2572 133.838 54.9019 133.063C59.3474 132.121 63.8204 131.159 68.3331 130.107C68.5169 130.065 68.7006 130.025 68.8844 129.982C68.5553 129.683 68.2276 129.384 67.8985 129.087C64.0768 129.988 60.2813 130.813 56.5104 131.626C54.6674 132.024 52.7861 132.392 50.9007 132.774C52.2979 132.431 53.7007 132.099 55.098 131.74C59.0759 130.717 63.0553 129.597 67.051 128.322C66.1392 127.504 65.2259 126.697 64.3113 125.9C57.4209 128.231 50.551 129.963 43.6043 131.578C43.0394 131.71 42.4703 131.853 41.9026 131.994C41.3349 133.066 40.7672 134.143 40.1996 135.222C40.6383 135.166 41.0771 135.098 41.5159 135.011C41.5475 135.035 41.5777 135.061 41.6078 135.085C41.0538 135.266 40.5081 135.464 39.9637 135.669C39.5976 136.364 39.2315 137.061 38.8654 137.759C40.6 137.427 42.3305 137.114 44.0582 136.812C44.1405 136.867 44.2214 136.921 44.305 136.976C42.2907 137.477 40.3998 138.215 38.8736 139.6C38.5184 139.666 38.1619 139.725 37.8054 139.785C37.6121 140.155 37.4187 140.524 37.2254 140.896C37.538 140.847 37.8506 140.797 38.1619 140.744C38.2456 140.943 38.4403 141.102 38.6953 141.085C41.4186 140.906 44.1281 140.77 46.8295 140.649C46.1041 140.789 45.3773 140.927 44.6547 141.081C41.8176 141.66 36.4808 142.015 35.743 145.44C35.6759 145.749 35.9844 146.108 36.3245 146.065C36.7482 146.012 37.1719 145.961 37.5956 145.912C37.6792 146.087 37.8548 146.229 38.1084 146.233C38.166 146.234 38.2236 146.237 38.2812 146.238C37.852 146.418 37.4393 146.626 37.032 146.85C37.5915 146.927 38.2236 147.023 38.8955 147.139C39.6579 146.829 40.4478 146.577 41.2568 146.37C41.5708 146.386 41.8834 146.404 42.1974 146.423C42.0864 146.694 42.2043 147.065 42.5841 147.167C44.3489 147.634 46.1137 148.017 47.873 148.327C46.462 148.275 45.0469 148.232 43.6318 148.203C46.5621 149.019 49.5788 150.197 51.744 151.699C53.8858 151.875 56.0236 152.065 58.1627 152.248C56.5899 152.447 55.0651 152.791 53.5992 153.318C54.2341 154.052 54.6578 154.839 54.7854 155.678C56.7997 155.886 58.8141 156.095 60.8298 156.289C64.5828 157.166 68.3372 158.071 72.1054 158.902C70.837 158.841 69.5727 158.784 68.3098 158.732C68.3071 158.439 68.122 158.139 67.7627 158.141C64.9435 158.156 62.142 158.191 59.3516 158.249C57.7815 157.913 56.1977 157.658 54.614 157.449C54.2986 158.46 53.7295 159.233 52.9781 159.804C53.3332 159.761 53.6829 159.7 54.0408 159.668C55.4682 159.641 56.8943 159.615 58.3218 159.584C59.6999 159.774 61.0793 159.96 62.4602 160.14C63.202 160.366 63.9329 160.628 64.6555 160.905C63.612 160.909 62.5603 160.873 61.5154 160.832C58.1504 160.703 54.8004 160.624 51.4533 160.625C48.8369 161.614 45.2128 161.341 42.325 160.946C40.5341 161.079 38.7406 161.259 36.9456 161.5C36.744 161.891 36.5411 162.283 36.3395 162.675C38.4732 162.369 40.6013 162.136 42.7309 161.987C42.6746 162.293 42.9406 162.664 43.2972 162.708C44.2653 162.829 45.232 162.947 46.1987 163.077C46.3591 163.307 46.5113 163.54 46.6635 163.775C46.1685 163.86 45.6776 163.959 45.1936 164.074C42.9544 164.159 40.7138 164.304 38.4732 164.563C37.3693 164.691 36.2573 164.835 35.1425 165.004C34.4431 166.367 33.7438 167.738 33.0417 169.117C35.525 168.736 37.985 168.419 40.4299 168.129C41.1731 168.151 41.915 168.178 42.6554 168.212C44.7891 168.521 46.9159 168.864 49.0399 169.221C49.0564 169.289 49.0742 169.356 49.0893 169.423C43.5591 169.333 38.0248 169.522 32.4288 170.325C32.3314 170.517 32.2341 170.709 32.1367 170.901C32.1367 170.901 32.3972 171.056 32.8415 171.343C38.3552 170.579 43.8155 170.428 49.2689 170.528C49.3169 170.904 49.3786 171.276 49.3951 171.664C49.4142 172.082 49.4019 172.488 49.3731 172.89C44.2433 172.403 39.093 172.027 33.8741 172.034C34.3266 172.345 34.8394 172.713 35.4057 173.139C38.3511 173.179 41.2773 173.334 44.1926 173.552C41.5941 173.574 38.9915 173.678 36.3766 173.891C36.7838 174.214 37.2048 174.56 37.6354 174.926C41.4721 174.664 45.2813 174.612 49.092 174.708C48.9823 175.152 48.8369 175.581 48.6779 176.004C45.1854 175.71 41.6832 175.47 38.155 175.371C38.7666 175.909 39.3878 176.485 39.9994 177.087C42.5677 177.353 45.125 177.69 47.6755 178.076C47.5741 178.247 47.4698 178.417 47.3615 178.584C45.3814 178.527 43.3986 178.516 41.4117 178.554C41.952 179.145 42.4717 179.751 42.9557 180.368C44.0184 180.327 45.0784 180.274 46.1411 180.26C45.8586 180.608 45.5652 180.95 45.2649 181.281C44.7136 181.265 44.1652 181.26 43.6139 181.249C44.1473 181.995 44.6204 182.747 45.0085 183.495C45.3554 183.144 45.6955 182.787 46.0218 182.422C57.4798 182.798 68.8103 184.11 80.5659 183.279C82.1469 183.43 83.7348 183.552 85.3309 183.637C85.6504 183.655 85.9699 183.678 86.2908 183.692C86.8338 183.378 87.3809 183.042 87.928 182.683C87.5331 182.672 87.1382 182.653 86.7447 182.635C87.2726 182.561 87.8033 182.488 88.3339 182.405C88.9743 181.973 89.6147 181.504 90.255 181.004C86.9805 181.591 83.7458 181.966 80.544 182.186C77.7645 181.916 75.0028 181.568 72.2576 181.159C78.4268 181.388 84.6837 181.284 91.0942 180.348C91.8566 179.72 92.6135 179.03 93.3663 178.306C87.4097 179.118 81.5971 179.222 75.8639 178.963C82.0139 178.948 88.2572 178.42 94.6594 177.007C95.0736 176.573 95.4877 176.128 95.8949 175.662C79.8762 179.455 64.9105 177.452 49.827 176.101C49.9696 175.658 50.0889 175.206 50.1849 174.743C55.3627 174.907 60.5363 175.28 65.7552 175.587C70.4599 175.956 75.1934 176.168 79.9914 176.03C80.6852 176.008 80.5892 174.92 79.8995 174.924C75.0974 174.946 70.3653 174.742 65.6661 174.464C60.5665 174.062 55.4984 173.482 50.4153 172.987C50.4674 172.159 50.4536 171.344 50.3494 170.55C52.9465 170.612 55.5423 170.722 58.1435 170.841C70.5765 173.105 83.0204 175.425 96.0252 175.509C96.3351 175.153 96.6423 174.789 96.9467 174.417C86.4403 174.405 76.3027 172.932 66.2461 171.192C71.8531 171.392 77.5067 171.429 83.248 170.955C83.7869 170.909 83.8966 170.092 83.4427 169.899C88.9441 169.5 94.5319 168.628 100.235 167.117C100.855 166.951 100.918 166.011 100.281 166.059C95.7221 166.389 91.2272 166.426 86.7831 166.277C91.3657 165.907 96.0073 165.163 100.72 163.964C101.461 163.774 101.313 162.826 100.617 162.923C90.4347 164.34 80.5933 164.009 70.9303 163.601C71.0468 163.351 70.9714 162.989 70.7095 162.811C70.1212 162.411 69.5179 162.051 68.9077 161.706C69.6646 161.569 70.4064 161.388 71.1291 161.137C80.0723 162.001 89.1457 162.154 98.4989 160.758C99.1214 160.665 99.1694 159.661 98.5496 159.676C90.4648 159.855 82.5391 159.423 74.7176 159.035C74.8369 158.727 74.7313 158.315 74.3529 158.235C72.3591 157.816 70.3722 157.375 68.3866 156.923C77.9139 157.593 87.5633 157.473 97.4773 155.811C96.7519 155.269 96.0293 154.712 95.3094 154.142C82.3732 154.582 69.8442 154.019 57.558 154.438C56.8189 154.272 56.0798 154.1 55.3407 153.938C58.6125 153.052 62.1585 153.06 65.6935 153.059C66.8467 153.057 68.004 153.081 69.1627 153.078C77.1886 153.557 85.2967 153.581 93.5638 152.73C92.9495 152.224 92.3366 151.708 91.7236 151.186C87.3891 151.52 83.0945 151.692 78.8354 151.796C75.358 151.882 71.8956 151.895 68.4566 151.908C67.6256 151.859 66.7974 151.805 65.9678 151.749C66.0062 151.693 66.0281 151.629 66.0391 151.556C67.0771 151.623 68.1165 151.685 69.1559 151.74C69.8483 151.777 69.7414 150.677 69.0695 150.607C67.8614 150.477 66.6547 150.363 65.4494 150.23C67.7764 150.316 70.1061 150.377 72.4441 150.399C72.706 150.401 72.8623 150.192 72.9048 149.953C78.2801 149.875 83.6978 149.569 89.169 148.956C88.7344 148.569 88.301 148.18 87.8677 147.788C80.0394 147.826 72.3344 147.822 64.746 148.074C63.324 147.852 61.9021 147.651 60.4815 147.438C60.4595 147.413 60.4376 147.389 60.4156 147.363C62.3669 147.452 64.3223 147.553 66.2818 147.659C66.9729 147.695 66.8673 146.602 66.194 146.534C63.793 146.292 61.3975 146.06 59.0033 145.853C58.4808 145.341 57.9433 144.852 57.3852 144.384C64.4142 143.939 71.4678 143.357 78.6023 142.341C79.277 142.245 79.2193 141.146 78.52 141.188C70.7684 141.661 63.1458 142.168 55.6314 143.002C54.5619 142.216 53.458 141.48 52.335 140.775C53.5842 140.581 54.8375 140.398 56.0935 140.223C63.228 139.859 70.3639 139.242 77.5588 138.101C77.0226 137.591 76.4879 137.08 75.9517 136.571C70.2762 137.338 64.6555 137.983 59.0951 138.716C58.0461 138.856 56.9985 139.001 55.9536 139.148C54.0243 139.255 52.0936 139.351 50.1602 139.441C49.8229 139.238 49.4855 139.038 49.1496 138.836C52.0964 138.38 55.0404 137.929 57.9899 137.45C63.2129 136.604 68.4579 135.647 73.7399 134.477C73.4067 134.163 73.0735 133.851 72.7403 133.538C68.0219 134.579 63.3309 135.456 58.6591 136.239C55.0144 136.851 51.3806 137.41 47.7427 137.99C47.4534 137.816 47.1654 137.639 46.8775 137.464C47.7112 137.314 48.5435 137.18 49.3525 137.036C53.639 136.271 57.9515 135.608 62.3025 134.949C65.7168 134.433 69.1559 133.942 72.6155 133.423C72.2631 133.092 71.9093 132.763 71.5569 132.435C67.4322 133.072 63.3405 133.679 59.2816 134.317C55.1789 134.963 51.1063 135.618 47.0557 136.39C46.5717 136.483 46.0904 136.578 45.6104 136.678C45.5583 136.644 45.5076 136.608 45.4541 136.574C53.8694 135.142 62.2407 133.73 70.7163 131.654C70.3776 131.351 70.0472 131.046 69.7153 130.742ZM56.2526 130.152C59.0869 129.368 61.9514 128.619 64.8392 127.856C62.4519 128.599 60.0742 129.299 57.6924 129.947C55.3188 130.594 52.9438 131.189 50.5702 131.776C52.4529 131.222 54.3466 130.68 56.2526 130.152ZM41.6928 136.189C42.0219 136.08 42.3497 135.976 42.6815 135.874C42.7322 135.91 42.7816 135.947 42.8323 135.983C42.4525 136.05 42.0727 136.119 41.6928 136.189ZM67.4295 160.751C67.3212 160.764 67.2128 160.775 67.1045 160.784C67.0373 160.753 66.9701 160.723 66.9029 160.691C67.0771 160.712 67.254 160.731 67.4295 160.751ZM45.1662 161.859C45.21 161.857 45.2526 161.857 45.2964 161.854C45.3033 161.862 45.3088 161.87 45.3156 161.879C45.2663 161.872 45.2155 161.866 45.1662 161.859ZM39.7443 166.338C39.0313 166.375 38.3155 166.417 37.6024 166.472C36.6878 166.367 35.7719 166.268 34.8518 166.179C37.0306 165.822 39.2054 165.571 41.3788 165.398C40.818 165.673 40.275 165.991 39.7443 166.338ZM47.4095 166.227C45.701 166.188 43.9951 166.191 42.2838 166.235C43.3095 165.773 44.3791 165.43 45.4761 165.168C46.1384 165.145 46.7993 165.12 47.4616 165.111C47.6522 165.459 47.8277 165.813 47.9936 166.17C47.814 166.191 47.6371 166.209 47.4589 166.229C47.4424 166.228 47.4273 166.228 47.4095 166.227ZM47.3601 163.239C47.8963 163.313 48.4311 163.392 48.9658 163.468C48.5133 163.51 48.0649 163.567 47.6179 163.627C47.5343 163.497 47.4465 163.369 47.3601 163.239ZM47.271 167.37C47.3451 167.362 47.4205 167.357 47.4945 167.348C47.825 167.357 48.1554 167.365 48.4859 167.376C48.4955 167.402 48.5065 167.428 48.5161 167.454C48.1006 167.425 47.6865 167.396 47.271 167.37ZM48.9658 166.054C48.815 165.733 48.6628 165.414 48.4942 165.1C50.8787 165.086 53.2647 165.15 55.6547 165.259C53.432 165.545 51.2037 165.806 48.9658 166.054ZM73.5082 182.44C64.5499 182.505 55.7768 181.664 46.9378 181.335C47.2203 180.98 47.4904 180.621 47.7455 180.252C52.7258 180.235 57.6992 180.46 62.7097 180.686C64.0631 180.928 65.4179 181.14 66.7768 181.371C69.0133 181.75 71.2539 182.119 73.5082 182.44ZM50.1382 169.412C50.2123 169.424 50.2863 169.438 50.3604 169.45C50.2891 169.449 50.2164 169.446 50.1451 169.446C50.1424 169.434 50.141 169.423 50.1382 169.412ZM74.5997 180.001C71.7832 179.965 68.9872 179.868 66.205 179.75C64.8543 179.662 63.505 179.566 62.1585 179.469C59.7067 179.03 57.2591 178.579 54.8114 178.15C61.3686 178.846 67.93 179.65 74.5997 180.001ZM51.9469 178.773C50.876 178.716 49.8064 178.675 48.7355 178.634C48.8013 178.512 48.8699 178.391 48.9316 178.268C49.9381 178.425 50.9432 178.606 51.9469 178.773ZM49.587 167.531C49.5719 167.49 49.5541 167.45 49.539 167.409C54.3795 167.609 59.2158 168.078 64.0796 168.647C59.2391 168.33 54.4206 167.885 49.587 167.531ZM58.0557 169.729C56.6585 169.475 55.2639 169.22 53.8666 168.972C61.3001 169.582 68.7253 170.24 76.2808 170.18C76.2904 170.181 76.2972 170.181 76.3068 170.183C70.1582 170.31 64.0933 170.002 58.0557 169.729ZM94.0355 167.436C88.0007 168.561 82.0866 169.02 76.2506 169.058C68.8515 168.145 61.5551 167.118 54.2725 166.58C56.6722 166.29 59.0622 165.965 61.4523 165.59C61.5126 165.595 61.573 165.596 61.6333 165.601C72.2384 166.356 82.9546 167.657 94.0355 167.436ZM88.5163 165.005C81.0472 165.752 73.7385 165.473 66.4943 164.714C66.7192 164.67 66.9441 164.624 67.169 164.578C67.5707 164.594 67.9711 164.602 68.3729 164.618C74.9932 164.897 81.6862 165.219 88.5163 165.005ZM69.0366 163.021C68.3551 163.169 67.6736 163.307 66.9934 163.444C66.7576 163.435 66.5245 163.418 66.29 163.41C62.4026 163.261 58.5233 163.129 54.677 163.192C51.962 162.801 49.2428 162.402 46.5168 162.036C46.4634 161.962 46.4085 161.89 46.3537 161.817C47.8579 161.761 49.3608 161.703 50.8677 161.699C55.4956 161.685 60.14 162.057 64.783 162.044C65.5523 162.043 66.316 162.01 67.0716 161.947C67.738 162.276 68.3935 162.635 69.0366 163.021ZM70.8603 159.989C70.8288 159.986 70.7959 159.982 70.7643 159.979C70.8 159.981 70.8356 159.982 70.8727 159.985C70.8685 159.985 70.8631 159.988 70.8603 159.989ZM73.3491 160.099C77.3572 160.296 81.3914 160.52 85.4612 160.666C81.3269 160.717 77.2352 160.532 73.1722 160.196C73.2298 160.162 73.2915 160.133 73.3491 160.099ZM93.2841 155.313C83.1191 156.586 73.2188 156.298 63.4022 155.423C73.1626 155.321 83.0972 155.608 93.2841 155.313ZM46.8788 147.083C47.8017 147.072 48.7231 147.065 49.646 147.069C52.0621 147.338 54.4741 147.649 56.8847 147.995C53.5581 148.059 50.226 147.727 46.8788 147.083ZM55.9098 144.482C56.4171 144.883 56.9135 145.303 57.3976 145.738C54.1587 145.474 50.924 145.27 47.6851 145.163C48.2459 145.073 48.8068 144.981 49.369 144.897C51.5493 144.752 53.7281 144.619 55.9098 144.482ZM50.2301 141.11C50.4413 141.074 50.6525 141.044 50.8636 141.01C51.973 141.697 53.07 142.407 54.1381 143.161C54.0134 143.176 53.8858 143.185 53.761 143.201C52.1855 143.393 50.6154 143.612 49.0468 143.847C45.0812 144.124 41.1114 144.441 37.1088 144.923C38.2414 143.119 41.76 142.799 43.6084 142.395C45.8052 141.902 48.0128 141.483 50.2301 141.11ZM47.6645 139.071C47.9141 139.222 48.1651 139.373 48.4146 139.523C46.7349 139.601 45.0524 139.682 43.3671 139.772C43.5838 139.733 43.8018 139.692 44.0171 139.658C45.2347 139.456 46.451 139.261 47.6645 139.071ZM45.4925 137.739C45.753 137.903 46.0122 138.067 46.2755 138.229C45.9176 138.286 45.5583 138.345 45.1991 138.404C43.965 138.606 42.7144 138.856 41.4542 139.105C42.6911 138.457 44.0733 138.045 45.4925 137.739Z" fill="black"/>
<path d="M40.9318 160.735C39.0107 160.415 37.6696 160.096 37.6696 160.096C37.442 160.537 37.213 160.978 36.9854 161.421C38.3004 161.16 39.6154 160.934 40.9318 160.735Z" fill="black"/>
<path d="M68.3035 181.371C68.2884 181.461 79.1623 181.764 89.415 176.496C99.5868 171.672 109.137 161.277 104.604 150.246C100.009 138.132 79.7231 127.914 60.9139 123.001C57.3953 129.81 53.922 136.374 50.4542 142.905C56.8455 145.294 62.3757 148.52 64.2995 152.354C69.288 162.53 57.1307 165.451 46.4762 164.706C45.4574 167.73 44.333 170.716 43.129 173.683C50.5021 179.825 56.4026 187.597 54.2264 194.492C51.7034 202.569 39.0784 195.577 26.7689 188.535C22.4632 197.169 18.0876 206.191 13.6914 215.325C36.7555 226.787 64.5189 235.371 80.4759 216.971C97.1775 197.532 68.0841 182.581 68.3035 181.371Z" fill="white" stroke="black" stroke-width="0.7473" stroke-miterlimit="10" stroke-linecap="round" stroke-linejoin="round"/>
<path d="M64.7051 183.695C64.7051 183.695 84.5194 194.496 80.9432 206.093" stroke="black" stroke-width="0.8066" stroke-miterlimit="10" stroke-linecap="round" stroke-linejoin="round"/>
<path d="M69.7158 130.742C69.7158 130.742 101.191 142.807 101.209 154.984C101.231 169.45 83.893 173.716 83.893 173.716" stroke="black" stroke-width="0.8066" stroke-miterlimit="10" stroke-linecap="round" stroke-linejoin="round"/>
</g>
</svg>
