<svg width="116" height="250" viewBox="0 0 116 250" fill="none" xmlns="http://www.w3.org/2000/svg">
<g opacity="0.3">
<g style="mix-blend-mode:multiply">
<path d="M126.5 1.51465V4.29672C125.332 4.03625 122.508 3.63435 118.032 3.09545C111.777 2.34547 107.63 3.28406 102.959 7.75473C96.6498 13.7905 90.7807 19.2805 82.7488 20.9601C79.0505 21.737 73.931 21.5013 70.1422 21.8246C61.833 22.5342 57.5477 27.4225 49.5581 31.837C48.1792 32.5982 46.8064 33.3684 45.4356 34.1453C41.0961 36.6018 37.1947 39.7455 33.7295 43.5717C33.0883 44.279 32.4833 44.3868 31.9105 43.895C31.4522 43.5043 31.3638 42.77 31.7155 42.2581C31.7477 42.2109 31.7819 42.1682 31.82 42.1256C34.0692 39.714 36.4188 37.5112 38.873 35.5218C43.1281 32.066 48.0707 30.1754 52.5429 27.1239C58.7376 22.9047 63.7063 19.6757 71.1995 19.2244C74.53 19.0223 78.3671 19.1234 81.2614 18.589C86.3185 17.6616 90.8792 15.3712 94.9434 11.7157C98.4789 8.53611 102.541 4.23388 106.137 2.30954C112.338 -0.997985 119.626 0.311094 126.498 1.5124L126.5 1.51465Z" fill="#E1D7C8"/>
</g>
<g style="mix-blend-mode:multiply">
<path d="M126.5 23.881V26.5133C117.716 25.8279 109.646 26.1114 101.631 30.2397C93.8296 34.2541 86.1883 40.8607 78.4353 45.4646C71.3482 49.6665 62.5518 51.5398 54.6283 53.6944C45.978 56.0432 39.2035 60.6292 35.9371 69.5176C33.2391 76.8342 32.1164 84.6487 30.4984 92.3024C28.5211 101.64 25.6892 110.651 22.0025 119.338C19.8262 124.462 17.2338 128.388 14.2252 131.114C9.54983 135.342 5.69668 138.928 2.48709 144.675C2.14603 145.289 1.67505 145.423 1.07617 145.077C0.552407 144.778 0.349397 144.07 0.619401 143.499C0.627521 143.483 0.633583 143.467 0.641704 143.454C3.29099 138.419 5.83677 135.773 10.573 131.35C14.1622 128.001 16.9516 124.657 19.1624 119.876C21.5843 114.627 23.6387 109.217 25.3278 103.651C28.1902 94.2114 30.2345 81.2951 32.3844 72.7573C33.2269 69.4149 34.579 66.2668 36.4446 63.3173C45.1558 49.5348 61.6301 51.0933 74.6268 44.6073C80.1629 41.8409 87.5362 36.5918 92.041 33.2606C98.5313 28.4536 105.407 25.3925 112.667 24.0774C116.958 23.3049 121.938 23.6756 126.498 23.8832L126.5 23.881Z" fill="#E1D7C8"/>
</g>
<g style="mix-blend-mode:multiply">
<path d="M126.5 42.3259V45.1088C120.293 45.1223 114.303 46.4129 108.531 48.9829C102.284 51.759 95.9158 55.3284 89.9902 57.6609C84.2424 59.9172 77.6175 61.9854 72.7569 64.4321C51.5422 75.0909 39.6869 99.2226 35.0628 123.303C34.695 125.221 33.6198 128.748 31.8413 133.881C30.6388 137.354 28.8664 140.341 26.524 142.841C23.929 145.604 19.7111 147.45 16.7463 149.814C13.4642 152.429 11.4149 156.103 10.5963 160.842C8.17718 174.842 10.3296 187.811 20.0891 197.667C20.2245 197.809 20.2467 198.037 20.1437 198.207L19.4625 199.339C19.3352 199.55 19.0785 199.603 18.8886 199.462C18.8886 199.462 18.8866 199.462 18.8846 199.46C15.0628 196.516 11.8352 190.775 10.0486 186.139C6.83922 177.82 6.94433 168.004 8.7976 159.178C10.4205 151.423 15.1234 147.28 21.3643 143.796C27.2233 140.529 29.41 134.909 31.3603 128.172C32.9286 122.763 34.5151 115.23 36.1057 110.002C43.2399 86.5226 56.4271 67.4032 78.048 59.4601C81.0533 58.3555 84.0625 57.2441 87.0718 56.1261C93.6159 53.695 100.892 49.6573 106.055 47.2464C112.597 44.1834 119.412 42.5433 126.498 42.3282L126.5 42.3259Z" fill="#E1D7C8"/>
</g>
<g style="mix-blend-mode:multiply">
<path d="M126.496 67.7803V70.5534C120.034 69.8584 113.85 70.5759 107.946 72.7035C92.4674 78.2857 82.7874 81.8505 78.9081 83.4023C70.3149 86.8367 59.7292 92.3762 53.5479 99.6654C46.577 107.881 48.5166 117.957 45.4514 127.743C43.6949 133.35 41.7675 136.514 37.9615 142.465C35.342 146.568 33.1988 151.05 31.5298 155.91C31.369 156.378 30.8948 156.612 30.4715 156.434C30.4226 156.414 30.3758 156.387 30.3311 156.358L29.7428 155.96C29.5311 155.816 29.4579 155.609 29.523 155.337C30.679 150.461 33.1397 145.855 35.7287 141.75C38.7918 136.899 40.3469 134.432 40.3916 134.346C42.7465 129.841 44.2038 125.262 44.7676 120.604C45.6428 113.322 46.0641 106.404 49.9393 100.729C52.632 96.7799 55.8255 93.5502 59.5175 91.038C73.0239 81.855 88.4273 77.0735 103.501 71.5677C112.015 68.4505 118.279 67.0561 126.5 67.7803H126.496Z" fill="#E1D7C8"/>
</g>
<g style="mix-blend-mode:multiply">
<path d="M126.498 88.235V91.0365C119.205 90.555 112.46 91.8827 106.266 95.0218C96.8954 99.7653 89.3713 104.088 80.3913 106.62C71.5572 109.111 64.3246 110.056 59.4611 118.974C56.3429 124.698 56.0696 131.404 57.7562 137.777C61.982 153.731 69.6944 163.353 79.8265 175.808C85.2813 182.521 90.0537 188.347 98.6388 187.312C100.372 187.105 102.081 186.812 103.766 186.438C104.16 186.353 104.551 186.6 104.685 187.021C105.013 188.036 104.369 188.639 103.553 188.929C95.9134 191.637 89.2802 189.958 83.6513 183.896C78.5245 178.378 73.2924 171.911 67.9551 164.489C56.9908 149.26 45.0627 122.187 66.068 108.697C67.6999 107.65 70.2958 106.687 73.8554 105.807C84.8804 103.093 92.5644 99.277 105.367 92.6815C111.853 89.3444 118.897 87.8614 126.5 88.2372L126.498 88.235Z" fill="#E1D7C8"/>
</g>
<g style="mix-blend-mode:multiply">
<path d="M126.498 116.577V119.367C116.981 118.532 108.365 118.843 99.9005 123.053C95.2108 125.382 90.6365 127.746 86.1775 130.138C85.6276 130.432 85.1786 130.303 84.8285 129.752C84.1282 128.646 84.6308 128.136 85.5535 127.622C92.0267 124.023 97.2642 121.342 101.264 119.572C108.713 116.288 117.736 115.798 126.5 116.579L126.498 116.577Z" fill="#E1D7C8"/>
</g>
<g style="mix-blend-mode:multiply">
<path d="M100.812 166.164C102.707 164.477 104.259 162.065 105.467 158.925C106.984 154.975 108.488 151.005 109.985 147.014C110.44 145.806 111.028 144.683 111.753 143.647C111.919 143.407 112.131 143.337 112.391 143.436L113.004 143.668C113.391 143.817 113.594 144.282 113.457 144.704C113.453 144.718 113.447 144.731 113.443 144.745C111.46 149.926 109.467 155.145 107.462 160.405C106.132 163.881 103.006 169.479 99.2324 168.558C95.9136 167.747 89.4402 155.36 87.6468 152.025C87.3517 151.486 87.5159 150.785 88.0105 150.465C88.104 150.406 88.2038 150.361 88.3077 150.334C88.8792 150.189 89.3571 150.44 89.7457 151.091C92.1584 155.14 94.6127 159.163 97.1127 163.158C97.9918 164.561 98.9789 165.588 100.074 166.239C100.313 166.38 100.604 166.35 100.812 166.164Z" fill="#E1D7C8"/>
</g>
<g style="mix-blend-mode:multiply">
<path d="M126.5 207.28V209.965C121.225 209.142 115.938 208.763 110.639 208.826C105.304 208.893 98.9818 210.033 93.152 210.594C78.0772 212.036 63.1301 204.625 56.1254 189.356C52.455 181.352 50.0627 172.9 48.9507 164.001C48.6144 161.321 48.4645 158.734 48.5071 156.238C48.5111 155.944 48.7015 155.693 48.9649 155.637C50.3362 155.354 50.634 155.818 50.7251 157.27C51.2092 165.34 52.6819 173.187 55.1471 180.809C61.1126 199.268 73.1266 208.362 91.1912 208.093C92.7671 208.07 96.0466 207.743 101.034 207.108C109.908 205.975 117.911 206.076 126.5 207.283V207.28Z" fill="#E1D7C8"/>
</g>
<g style="mix-blend-mode:multiply">
<path d="M126.5 180.827V183.038C122.385 183.335 118.29 183.829 114.216 184.516C113.199 184.687 112.375 184.472 112.516 183.275C112.536 183.101 112.638 182.945 112.792 182.849C113.196 182.615 113.671 182.453 114.221 182.363C118.712 181.654 122.805 181.14 126.5 180.825V180.827Z" fill="#E1D7C8"/>
</g>
<g style="mix-blend-mode:multiply">
<path d="M126.5 229.47V232.102C119.293 231.705 114.191 231.795 111.198 232.372C103.562 233.852 95.3085 236.454 87.5397 235.98C80.2347 235.534 72.6958 233.342 65.7957 230.618C57.0522 227.168 50.7626 222.415 45.4274 214.428C44.06 212.381 42.0496 208.462 39.3942 202.671C36.8324 197.079 34.2339 191.532 31.5989 186.026C31.3791 185.561 31.5378 184.989 31.955 184.747C31.9611 184.745 31.9672 184.741 31.9733 184.738C32.5858 184.4 33.2206 184.563 33.5828 185.248C36.7774 191.381 40.0779 198.326 43.4882 206.083C48.6708 217.88 56.8386 224.634 67.9974 228.776C75.5526 231.583 83.8017 233.692 91.6438 233.243C97.5794 232.905 105.434 230.578 110.281 229.861C114.723 229.204 120.129 229.076 126.5 229.475V229.47Z" fill="#E1D7C8"/>
</g>
<g style="mix-blend-mode:multiply">
<path d="M72.5 251.943H66.5832L64.1454 251.766C55.7125 248.347 47.6753 244.131 40.036 239.122C32.3438 234.088 27.9083 228.152 26.5138 218.686C26.4186 218.041 26.827 217.437 27.4237 217.337C27.447 217.333 27.4703 217.33 27.4935 217.328C28.3844 217.239 28.7527 218.005 28.9325 218.88C31.5608 231.898 38.7452 235.956 49.637 242.034C56.9547 246.119 64.575 249.422 72.5 251.946V251.943Z" fill="#E1D7C8"/>
</g>
<g style="mix-blend-mode:multiply">
<path d="M26.4978 251.946H23.4816C20.6764 247.598 19.0164 242.642 18.504 237.077C18.4631 236.633 18.7366 236.223 19.1521 236.106C19.9077 235.891 20.4546 236.18 20.7969 236.976C20.8271 237.044 20.8464 237.118 20.8551 237.199C21.4643 242.929 23.346 247.844 26.5 251.946H26.4978Z" fill="#E1D7C8"/>
</g>
</g>
<g opacity="0.5">
<path opacity="0.26" d="M122.792 194.709C118.63 193.264 114.419 191.691 110.107 189.859C104.921 194.176 99.3973 197.613 93.7948 200.845C96.1793 198.281 111.816 170.491 101.287 144.8C95.4507 130.643 82.4805 131.065 82.4498 130.987C75.4102 131.389 68.3075 131.626 61.3056 132.125C61.4059 132.206 61.5073 132.293 61.6066 132.376C50.3709 134.483 39.8318 144.809 35.9966 166.121C39.9872 169.179 43.9944 172.282 48.0732 175.568C48.0063 175.393 49.4043 170.877 52.1393 166.008C50.7484 169.103 49.3828 172.263 48.0732 175.568C53.0377 173.396 58.2283 171.814 63.5011 170.445C63.4821 170.395 67.3138 161.19 75.5279 157.334C80.0865 163.534 74.7522 176.263 68.6504 190.348C61.5255 205.958 53.4053 223.33 53.7024 224.101C56.6111 229.42 59.5588 234.842 62.5609 240.407C64.8019 241.497 67.0759 242.676 69.3691 243.904C86.5612 235.303 104.142 227.71 121.485 219.502C122.111 211.73 122.587 203.572 122.792 194.709ZM93.5036 201.014C93.5033 201.013 93.5033 201.013 93.5042 201.012C93.5045 201.013 93.5067 201.011 93.5082 201.012C93.5057 201.013 93.5048 201.014 93.5036 201.014Z" fill="black"/>
<path d="M44.7291 169.133C49.6936 166.961 54.8842 165.379 60.157 164.01C60.1312 163.942 67.2973 146.732 83.0485 149.533C98.8175 152.378 60.0863 134.927 60.105 134.975C55.0941 146.661 49.554 156.965 44.7291 169.133Z" fill="white" stroke="black" stroke-width="0.8066" stroke-miterlimit="10" stroke-linecap="round" stroke-linejoin="round"/>
<path d="M68.1367 145.589C67.653 145.552 67.175 145.546 66.7034 145.557C65.6667 143.724 64.5841 141.914 63.4229 140.15C63.1348 139.712 62.362 139.936 62.4445 140.445C62.7475 142.306 63.1607 144.136 63.6389 145.95C63.0752 146.081 62.5224 146.243 61.9805 146.43C60.6587 144.239 59.3421 142.059 58.0313 139.894C58.0114 139.862 57.9855 139.844 57.9625 139.821C57.786 140.212 57.6093 140.602 57.4314 140.992C58.4899 142.98 59.4971 145 60.4639 147.038C60.0495 147.225 59.6402 147.424 59.2397 147.638C58.2453 146.289 57.2371 144.958 56.2103 143.651C56.0127 144.077 55.8148 144.502 55.617 144.927C56.3187 146.123 57.0243 147.324 57.7062 148.539C57.4104 148.727 57.1199 148.921 56.832 149.121C56.1515 148.328 55.4518 147.551 54.746 146.787C54.5579 147.188 54.3696 147.588 54.1812 147.988C54.7133 148.601 55.2457 149.215 55.7801 149.833C55.74 149.869 55.7111 149.915 55.6848 149.967C55.1668 150.369 54.6607 150.783 54.1727 151.21C53.7981 150.933 53.425 150.657 53.0512 150.384C52.8654 150.778 52.6796 151.172 52.4928 151.568C52.7186 151.752 52.9446 151.937 53.1706 152.122C52.7056 152.56 52.252 153.004 51.8163 153.453C51.6688 153.604 51.5311 153.765 51.3884 153.92C49.7926 157.332 48.2112 160.784 46.6834 164.376C46.7036 164.375 46.7235 164.373 46.7437 164.372C46.7341 165.594 46.91 166.83 47.3117 168.062C48.0012 167.791 48.693 167.53 49.3895 167.278C49.7566 166.253 50.1343 165.242 50.493 164.23C50.691 164.227 50.8902 164.223 51.0894 164.219C51.2822 164.787 51.5134 165.349 51.7885 165.902C52.0232 166.375 52.6711 166.333 52.8193 165.841C52.9833 165.296 53.1247 164.748 53.2815 164.205C55.1569 164.209 57.0467 164.254 58.9494 164.327C59.3515 164.22 59.753 164.115 60.1556 164.009C60.1556 164.009 60.2498 163.776 60.4326 163.385C59.1161 163.323 57.8051 163.274 56.5005 163.241C56.7094 163.042 56.8954 162.831 57.0673 162.631C58.2296 162.737 59.3996 162.816 60.5622 162.951C60.5678 162.992 60.5736 163.034 60.5804 163.074C60.9252 162.363 61.4785 161.306 62.2646 160.08C59.8758 159.095 57.5011 158.144 55.1435 157.24C55.1836 157.032 55.2216 156.825 55.2629 156.617C55.446 155.845 55.6332 155.074 55.8097 154.301C57.9954 156.115 60.1971 157.971 62.4098 159.858C62.8432 159.194 63.3398 158.489 63.9027 157.767C63.7766 157.617 63.6493 157.468 63.522 157.319C62.2991 154.871 61.0326 152.449 59.7248 150.059C61.3585 152.342 62.9334 154.687 64.4627 157.071C64.7728 156.696 65.1038 156.323 65.4476 155.951C64.7045 154.06 63.9318 152.179 63.111 150.316C64.1042 151.965 65.0995 153.617 66.0967 155.277C66.4848 154.887 66.8904 154.501 67.319 154.126C66.449 151.666 65.6215 149.197 64.9288 146.7C65.3159 146.632 65.6942 146.56 66.0572 146.526C67.1776 148.534 68.2048 150.585 69.1744 152.663C69.5647 152.387 69.9676 152.123 70.3836 151.87C69.8217 149.909 69.259 147.943 68.6931 145.969C68.629 145.729 68.3638 145.607 68.1367 145.589ZM48.2215 167.452C47.9031 166.394 47.7795 165.347 47.7879 164.319C48.3113 164.296 48.8368 164.276 49.3643 164.259C48.9923 165.318 48.6058 166.38 48.2215 167.452ZM49.7164 163.23C49.0892 163.246 48.4634 163.267 47.84 163.293C47.9402 162.332 48.1704 161.394 48.4998 160.482C49.1385 160.716 49.7817 160.948 50.4296 161.178C50.1955 161.861 49.9563 162.544 49.7164 163.23ZM50.3997 160.089C50.251 160.035 50.101 159.982 49.9524 159.928C50.1016 159.951 50.2506 159.973 50.3999 159.996C50.4005 160.026 50.4002 160.058 50.3997 160.089ZM49.2267 158.8C49.5817 158.111 49.9963 157.442 50.449 156.795C50.5671 156.843 50.6849 156.89 50.8029 156.938C50.6245 157.608 50.5103 158.292 50.449 158.984C50.0405 158.92 49.6341 158.859 49.2267 158.8ZM52.4503 163.194C52.2632 163.195 52.077 163.194 51.8902 163.197C51.7424 162.653 51.6356 162.106 51.5646 161.559C51.976 161.691 52.3897 161.817 52.8108 161.93C52.6973 162.351 52.5683 162.771 52.4503 163.194ZM53.0675 160.941C52.6312 160.822 52.1982 160.701 51.7725 160.562C51.8107 160.451 51.8451 160.34 51.8821 160.23C52.3178 160.301 52.7563 160.374 53.1941 160.449C53.15 160.612 53.1101 160.777 53.0675 160.941ZM52.199 159.263C52.3712 158.749 52.5433 158.234 52.7118 157.72C53.066 157.869 53.4229 158.014 53.7776 158.165C53.6705 158.603 53.5523 159.036 53.4415 159.475C53.026 159.402 52.6125 159.333 52.199 159.263ZM54.7461 162.35C55.0758 162.404 55.4081 162.453 55.7411 162.494C55.4848 162.726 55.1864 162.802 54.7461 162.35ZM56.566 161.586C56.0796 161.533 55.5942 161.472 55.1106 161.397C54.8397 161.355 54.5763 161.284 54.3101 161.23C54.3352 161.051 54.3726 160.859 54.4194 160.663C55.275 160.815 56.1336 160.975 56.995 161.141C56.863 161.299 56.7181 161.444 56.566 161.586ZM60.4162 161.961C59.5574 161.867 58.6958 161.789 57.833 161.711C57.9257 161.592 58.0192 161.473 58.1195 161.361C58.8803 161.511 59.6423 161.665 60.4053 161.825C60.4092 161.87 60.412 161.915 60.4162 161.961ZM57.9947 160.036C57.9053 160.113 57.8081 160.183 57.7282 160.268C56.706 160.067 55.6881 159.874 54.6725 159.691C54.6804 159.659 54.6902 159.618 54.6948 159.594C54.7476 159.275 54.8204 158.96 54.8771 158.641C55.9138 159.094 56.9508 159.564 57.9947 160.036ZM54.2006 156.386C54.1649 156.536 54.1298 156.688 54.0947 156.84C53.7708 156.717 53.4472 156.595 53.1238 156.474C53.4957 155.31 53.854 154.142 54.2028 152.971C54.409 153.141 54.6148 153.31 54.8224 153.482C54.5993 154.446 54.3938 155.414 54.2006 156.386ZM55.1839 151.961C55.1453 151.932 55.1055 151.903 55.0669 151.874C55.1244 151.825 55.1814 151.773 55.2405 151.725C55.2203 151.804 55.2029 151.883 55.1839 151.961ZM56.17 152.698C56.3123 152.059 56.4558 151.419 56.5966 150.779C57.7293 152.092 58.8657 153.416 60.0059 154.751C60.4599 155.368 60.9077 155.991 61.347 156.621C59.614 155.291 57.8874 153.983 56.17 152.698ZM57.5469 149.958C57.7729 149.799 57.9988 149.64 58.2301 149.487C59.0025 150.88 59.7612 152.284 60.5046 153.699C59.5522 152.422 58.5643 151.174 57.5469 149.958ZM59.8724 148.506C60.2131 148.319 60.5601 148.144 60.9121 147.979C61.7496 149.782 62.5622 151.598 63.3217 153.433C62.2 151.763 61.0458 150.123 59.8724 148.506ZM65.6442 152.517C64.598 150.776 63.5546 149.042 62.5123 147.313C62.9629 147.156 63.4238 147.027 63.8911 146.914C64.4139 148.795 65.012 150.659 65.6442 152.517ZM64.6818 145.742C64.4501 144.862 64.2349 143.976 64.0416 143.085C64.5594 143.924 65.0593 144.774 65.5486 145.627C65.2571 145.656 64.968 145.696 64.6818 145.742ZM68.4545 148.794C68.0962 148.101 67.7425 147.405 67.3672 146.72C67.5668 146.823 67.7588 146.96 67.9362 147.167C68.2265 147.504 68.3499 148.207 68.4545 148.794Z" fill="black"/>
<path d="M57.9615 125.692C64.9631 125.192 72.0661 124.955 79.1056 124.554C79.1364 124.632 92.1063 124.209 97.9429 138.367C109.192 165.814 90.5736 195.662 90.158 194.58C89.7586 198.158 89.3589 201.74 88.9759 205.362C95.0207 198.35 101.195 191.678 106.763 183.427C111.075 185.26 115.286 186.832 119.448 188.277C119.243 197.14 118.767 205.299 118.141 213.067C100.797 221.274 83.2177 228.867 66.0245 237.468C63.7315 236.241 61.4561 235.062 59.2163 233.971C66.6082 202.624 77.275 179.807 86.3529 152.856C80.0132 146.514 73.5588 139.872 67.1787 133.426C64.0824 130.783 61.0039 128.189 57.9615 125.692Z" fill="white" stroke="black" stroke-width="0.8066" stroke-miterlimit="10" stroke-linecap="round" stroke-linejoin="round"/>
<path d="M101.232 194.076C101.72 193.786 101.292 193.05 100.765 193.231C100.076 193.467 99.4113 193.728 98.7587 194.004C98.0964 194.804 97.4307 195.594 96.7627 196.38C98.2846 195.683 99.7824 194.932 101.232 194.076Z" fill="black"/>
<path d="M99.5753 143.143C99.3698 142.404 99.1448 141.67 98.8999 140.942C97.7102 141.548 96.5229 142.159 95.3481 142.791C96.4049 142.056 97.5705 141.229 98.6523 140.259C98.4276 139.625 98.1989 138.991 97.9421 138.367C97.886 138.228 97.8242 138.104 97.7665 137.969C96.1909 138.404 94.5947 138.794 92.9865 139.181C93.8807 138.592 94.7531 137.958 95.6075 137.285C96.1095 137.041 96.6143 136.809 97.1152 136.56C96.8996 136.127 96.6788 135.71 96.4518 135.31C96.0274 135.67 95.6017 136.024 95.1674 136.363C92.005 137.888 88.8164 139.355 85.6487 140.868C82.6416 141.539 79.6155 142.211 76.5946 142.944C82.7262 139.64 89.0907 136.702 95.4019 133.614C95.1703 133.278 94.9352 132.953 94.6953 132.642C90.3354 134.434 85.8133 135.804 81.2109 136.962C81.3179 136.851 81.4186 136.735 81.5255 136.624C83.8105 135.766 86.0716 134.849 88.3029 133.851C90.2207 133.181 92.1272 132.501 94.0217 131.806C93.6342 131.351 93.236 130.933 92.8336 130.535C91.2232 131.356 89.593 132.13 87.9466 132.862C86.6639 133.307 85.3777 133.748 84.0888 134.183C84.8676 133.497 85.6645 132.84 86.485 132.213C87.7131 131.724 88.9105 131.14 90.0719 130.467C90.7296 130.24 91.3886 130.025 92.0419 129.791C91.4652 129.277 90.88 128.81 90.2923 128.394C89.3641 128.956 88.446 129.536 87.5564 130.156C88.2289 129.423 88.8698 128.652 89.4839 127.848C89.1911 127.661 88.8992 127.483 88.6075 127.317C87.5901 128.623 86.4966 129.841 85.3209 130.946C83.095 131.662 80.8546 132.348 78.6083 133.025C77.5131 133.132 76.4048 133.178 75.2877 133.169C79.5636 131.183 83.838 129.168 88.0666 127.021C87.667 126.807 87.2734 126.613 86.8821 126.436C82.2719 128.735 77.6221 130.913 72.9769 133.072C72.501 133.036 72.0235 132.988 71.5459 132.933C71.6349 132.594 71.7284 132.258 71.8385 131.928C74.9248 131.275 77.7747 130.047 80.2719 128.261C82.3251 127.615 84.3662 126.938 86.391 126.217C85.8666 125.993 85.3558 125.799 84.861 125.631C84.0817 125.9 83.2986 126.163 82.5144 126.421C82.91 126.052 83.2921 125.663 83.6642 125.264C83.2531 125.15 82.8618 125.055 82.4916 124.974C81.6518 125.822 80.7575 126.599 79.8068 127.291C78.0658 127.838 76.3164 128.365 74.5616 128.88C76.9125 127.084 79.5677 125.769 82.3761 124.949C81.4306 124.749 80.6421 124.65 80.0742 124.603C77.7446 125.499 75.5469 126.742 73.5643 128.316C74.4445 126.94 75.5399 125.73 76.7692 124.687C76.2101 124.716 75.6511 124.745 75.093 124.773C73.6748 126.197 72.4903 127.874 71.6189 129.726C69.4133 130.353 67.2018 130.964 64.9888 131.57C65.3054 131.839 65.622 132.107 65.9401 132.377C67.4841 131.959 69.0284 131.538 70.569 131.111C70.5231 131.161 70.4725 131.207 70.4282 131.258C70.1998 131.512 70.3865 131.98 70.7087 132.079C70.591 132.471 70.4772 132.863 70.3861 133.265C70.3293 133.516 70.5505 133.841 70.8134 133.876C70.9342 133.892 71.0552 133.902 71.1757 133.917C70.3706 134.289 69.57 134.664 68.7647 135.035C69.263 135.54 69.7601 136.045 70.2586 136.551C73.1377 135.739 76.0072 134.907 78.8642 134.049C79.9637 133.937 81.0508 133.772 82.1218 133.542C79.6697 135.253 76.9556 136.549 74.0239 137.421C73.6449 137.535 73.6405 137.942 73.8335 138.2C73.3418 138.361 72.8474 138.522 72.3537 138.68C72.7148 139.048 73.0772 139.416 73.4383 139.784C75.0484 139.455 76.6524 139.11 78.2493 138.746C77.4276 139.755 76.6488 140.79 75.9331 141.862C75.8755 141.949 75.8126 142.042 75.7472 142.134C76.3013 142.699 76.8552 143.262 77.4102 143.825C78.7998 143.495 80.1848 143.168 81.5719 142.856C81.1486 143.065 80.721 143.261 80.298 143.472C79.7308 143.754 80.0281 144.598 80.6723 144.446C83.9362 143.673 87.051 142.517 89.9882 140.96C91.901 140.523 93.8035 140.086 95.6806 139.604C90.5513 142.179 85.2615 144.333 79.9436 146.398C80.2078 146.666 80.4735 146.935 80.7377 147.203C86.4647 144.983 92.152 142.64 97.6247 139.741C95.6665 141.427 93.5824 142.876 91.429 144.134C90.6945 144.564 89.9418 144.954 89.1875 145.336C87.7574 145.85 86.3188 146.349 84.8839 146.858C83.6154 147.111 82.3297 147.316 81.0416 147.51C81.711 148.188 82.3796 148.863 83.0467 149.536C83.7764 149.435 84.439 149.318 84.9795 149.219C84.546 149.534 84.1349 149.88 83.71 150.204C83.9503 150.446 84.1909 150.689 84.4309 150.929C85.4251 150.166 86.443 149.422 87.4865 148.707C88.3097 148.507 89.1252 148.28 89.9241 148.014C88.0772 148.882 86.3564 149.999 84.8238 151.324C85.0659 151.568 85.3092 151.812 85.551 152.054C87.0739 150.731 88.8005 149.628 90.6501 148.788C89.9868 149.389 89.339 150.014 88.7101 150.659C88.1118 151.277 87.1321 152.153 86.2672 153.124C85.7787 154.669 85.2831 156.193 84.7797 157.701C84.8061 157.693 84.8345 157.689 84.8608 157.682C84.9918 157.908 85.1481 158.133 85.3692 158.353C86.4082 159.385 87.8531 159.729 89.3442 159.697C88.9264 160.379 88.547 161.084 88.2156 161.815C88.0115 162.014 87.8021 162.206 87.6048 162.407C86.7352 163.291 85.7113 164.496 85.9726 165.854C86.2238 167.157 87.2335 167.764 88.4433 167.999C88.1342 168.284 87.8278 168.57 87.533 168.867C86.7294 169.684 85.1908 170.961 85.34 172.292C85.5184 173.872 87.1262 174.297 88.8737 174.249C88.2722 174.975 87.7083 175.732 87.1985 176.529C86.9896 176.856 87.3583 177.224 87.7123 177.251C88.0886 177.28 88.4606 177.297 88.8316 177.303C87.8742 178.415 87.0442 179.627 86.3572 180.934C84.0415 182.379 81.973 184.134 80.2617 186.24C80.1176 186.417 80.1113 186.606 80.238 186.819C80.7017 187.605 81.3702 188.035 82.1206 188.24C80.8488 189.287 79.6601 190.424 78.5781 191.675C78.3224 191.971 78.5546 192.499 79.0247 192.504C80.2436 192.518 81.4436 192.461 82.6207 192.344C81.2879 193.569 80.0738 194.922 79.0005 196.411C78.7889 196.705 79.1612 197.149 79.5183 197.145C79.756 197.142 79.9882 197.116 80.2245 197.107C79.2114 198.138 78.6337 199.416 79.2314 201.035C79.3325 201.308 79.6321 201.426 79.9008 201.38C83.238 200.826 86.4951 200.073 89.6536 199.096C89.6911 198.755 89.7295 198.412 89.767 198.071C88.6939 198.408 87.6122 198.724 86.516 199.006C85.007 199.392 83.0346 200.163 81.4187 200.118C81.1049 200.172 80.7927 200.227 80.4793 200.283C80.0143 199.48 80.0551 198.826 80.6047 198.323C80.8921 197.8 81.3929 197.384 81.9056 197.02C84.8109 196.76 87.5643 196.089 90.1081 195.01C90.1237 194.867 90.1397 194.726 90.1556 194.585C90.1556 194.585 90.4106 194.23 90.8299 193.594C88.6799 194.645 86.3522 195.372 83.8975 195.78C84.7112 195.318 85.5431 194.879 86.385 194.473C88.0763 193.655 89.8345 192.966 91.6254 192.348C91.869 191.956 92.1299 191.527 92.4154 191.04C89.2537 192.064 86.2024 193.302 83.3692 194.901C82.7568 195.247 82.0916 195.634 81.4684 196.072C81.1658 196.097 80.8551 196.103 80.5488 196.118C81.7071 194.638 83.0161 193.304 84.4558 192.112C87.7821 191.571 90.8925 190.474 93.6676 188.805C93.9697 188.24 94.2828 187.629 94.601 186.99C92.1097 188.768 89.2895 190.019 86.2466 190.751C88.8477 188.918 91.7845 187.476 94.9206 186.341C95.1157 185.936 95.3113 185.518 95.5081 185.088C91.2096 186.532 87.261 188.512 83.9483 191.201C82.7184 191.389 81.4583 191.5 80.1747 191.531C81.2453 190.391 82.397 189.342 83.6325 188.387C84.5804 188.342 85.5424 188.098 86.3361 187.848C90.2329 186.618 93.7471 184.639 96.8092 182.04C96.9554 181.673 97.1006 181.307 97.2446 180.925C97.1285 180.819 96.9587 180.767 96.7478 180.831C91.7145 182.36 87.0449 184.49 83.113 187.474C82.6782 187.434 82.2779 187.272 81.9852 186.853C81.4075 186.025 81.9196 185.88 82.585 185.2C83.7663 183.992 85.1065 182.943 86.5417 182.008C91.1645 182.911 95.5169 181.485 98.2481 178.051C98.4238 177.508 98.5956 176.952 98.7636 176.386C98.6846 176.342 98.5885 176.323 98.4725 176.344C94.8321 177.065 91.3374 178.221 88.2069 179.868C88.8152 178.944 89.5055 178.079 90.2635 177.268C93.7626 177.053 96.949 175.776 99.5365 173.535C99.6752 172.974 99.8048 172.401 99.9317 171.823C97.6021 174.238 94.6573 175.707 91.3626 176.168C93.8155 173.907 96.841 172.169 100.117 170.978C100.193 170.605 100.26 170.224 100.332 169.844C100.157 169.905 99.9822 169.959 99.8084 170.023C100.008 169.86 100.199 169.685 100.393 169.511C100.486 168.997 100.575 168.478 100.657 167.952C99.1633 169.456 97.4708 170.669 95.5741 171.547C94.3073 172.134 92.9634 172.568 91.5826 172.847C91.5802 172.847 91.5717 172.849 91.5669 172.85C94.1789 170.333 97.3745 168.349 100.816 166.881C100.87 166.503 100.921 166.126 100.968 165.743C96.7337 167.496 92.8434 169.94 89.833 173.162C89.1676 173.256 88.519 173.305 88.3293 173.206C87.8841 172.473 87.4381 171.735 86.9909 170.999C87.2437 170.696 87.5057 170.4 87.7799 170.112C88.4334 169.408 89.1401 168.757 89.8703 168.126C90.9708 168.124 92.0604 167.931 92.8054 167.785C95.9624 167.172 98.7837 165.716 101.203 163.537C101.245 163.065 101.277 162.588 101.308 162.109C99.5851 163.809 97.6384 165.129 95.4467 165.977C94.086 166.504 92.655 166.854 91.1887 167.021C94.2244 164.685 97.7427 162.906 101.347 161.546C101.369 161.17 101.383 160.792 101.398 160.414C99.5629 161.096 97.7472 161.878 95.9896 162.79C96.3287 162.575 96.6576 162.354 96.9725 162.127C98.6505 161.268 100.17 160.042 101.453 158.492C101.461 157.728 101.458 156.959 101.438 156.187C99.9675 158.35 98.1759 160.146 96.0885 161.453C94.2211 162.325 92.1783 162.724 90.0719 162.668C90.061 162.149 90.3266 161.47 90.6607 160.884C91.2821 160.3 91.9209 159.72 92.5746 159.149C93.2096 158.962 93.8019 158.751 94.3157 158.552C96.9652 157.534 99.3104 155.852 101.318 153.64C101.272 152.963 101.206 152.287 101.136 151.611C99.2629 152.375 97.1087 153.958 95.8886 154.786C94.6249 155.658 93.1356 156.767 91.8066 157.981C94.2561 154.968 97.5412 152.602 101.085 151.057C101.045 150.704 100.991 150.353 100.944 150C96.6738 151.844 92.7191 154.811 90.0402 158.628C89.6118 158.644 89.1832 158.642 88.7555 158.605C87.2236 158.47 87.0445 158.429 86.7358 157.064C89.1702 156.141 91.4129 154.778 93.3864 152.986C95.8581 150.907 97.8832 148.109 99.3471 144.805C99.5249 144.403 99.1724 144.056 98.8511 144.128C97.9496 144.33 97.0925 144.631 96.2633 144.993C96.7313 144.695 97.1898 144.378 97.6449 144.052C98.2977 143.766 98.9392 143.458 99.5753 143.143ZM72.6215 130.534C73.5952 130.258 74.5684 129.979 75.5387 129.694C74.5354 130.113 73.4912 130.454 72.4166 130.724C72.4832 130.658 72.5546 130.597 72.6215 130.534ZM70.3457 135.444C71.3081 135.002 72.2676 134.554 73.2298 134.111C73.7205 134.144 74.2092 134.17 74.6978 134.184C73.2486 134.608 71.7983 135.029 70.3457 135.444ZM79.396 137.404L79.3939 137.406C79.3902 137.407 79.3878 137.407 79.3842 137.408C79.389 137.407 79.3924 137.405 79.396 137.404ZM79.4243 138.957C79.5982 138.749 79.7815 138.549 79.9586 138.344C82.4613 137.745 84.9413 137.087 87.3853 136.339C84.0331 137.954 80.7056 139.603 77.4335 141.333C78.1125 140.473 78.8479 139.648 79.4243 138.957ZM87.064 147.75C86.6337 147.851 86.1988 147.939 85.7631 148.022C86.264 147.823 86.7604 147.616 87.255 147.4C87.4232 147.362 87.5905 147.324 87.7584 147.285C87.526 147.437 87.2944 147.594 87.064 147.75ZM94.4098 182.644C92.786 183.823 91.0603 184.847 89.2066 185.679C87.9988 186.223 86.6949 186.77 85.3603 187.123C88.101 185.282 91.1524 183.817 94.4098 182.644ZM97.3056 177.621C94.9856 180.355 91.5522 181.66 87.7698 181.231C90.6655 179.56 93.9336 178.389 97.3056 177.621ZM90.3394 174.113C91.4426 173.951 92.4504 173.678 93.0603 173.51C91.8588 174.353 90.7404 175.286 89.7339 176.317C89.3589 176.332 88.9811 176.335 88.5993 176.326C89.1336 175.552 89.7116 174.812 90.3394 174.113ZM94.3481 163.693C93.6579 164.094 92.9738 164.504 92.3092 164.95C91.3408 165.599 90.4143 166.302 89.5333 167.042C89.2371 166.885 89.0604 166.471 88.5508 165.479C87.8207 164.061 87.6005 163.906 88.033 163.432C88.0798 163.458 88.1235 163.488 88.1827 163.496C88.366 163.523 88.5489 163.537 88.7319 163.557C88.942 164.121 89.4497 164.545 90.3318 164.624C91.5951 164.737 93.0014 164.336 94.3481 163.693ZM99.4198 154.244C97.9195 155.649 96.2333 156.812 94.451 157.583C96.0301 156.327 97.6898 155.177 99.4198 154.244ZM93.3865 146.591C93.2995 146.65 93.2184 146.719 93.1329 146.779C93.0077 146.817 92.8822 146.847 92.7576 146.887C92.9676 146.792 93.1779 146.692 93.3865 146.591ZM90.9043 146.491C91.2078 146.404 91.5074 146.304 91.8085 146.212C91.4034 146.384 90.9937 146.542 90.5817 146.695C90.6885 146.627 90.7961 146.558 90.9043 146.491ZM92.4786 152.452C90.6758 153.888 88.6383 154.947 86.4368 155.597C86.2649 154.639 86.4547 154.622 87.3495 153.631C88.4245 152.437 89.5243 151.235 90.7023 150.102C91.5998 149.239 92.5302 148.436 93.5073 147.731C94.6643 147.388 95.8447 147.141 97.0328 146.999C95.7368 149.11 94.2125 150.949 92.4786 152.452ZM98.0218 145.442C97.9527 145.579 97.8894 145.72 97.8188 145.856C97.367 145.897 96.9174 145.954 96.4679 146.021C96.9707 145.797 97.4883 145.604 98.0218 145.442Z" fill="black"/>
<path d="M63.0456 235.898C63.9149 236.348 64.7876 236.808 65.6635 237.275C65.0957 236.651 64.5193 236.04 63.963 235.416C64.0429 235.253 64.0489 235.052 63.9167 234.876C62.9251 233.556 61.8855 232.315 60.7991 231.148C60.606 230.851 60.4403 230.535 60.2639 230.228C60.0892 230.859 59.9142 231.489 59.7387 232.117C60.8168 233.375 61.9183 234.636 63.0456 235.898Z" fill="black"/>
<path d="M60.5858 229.062C62.8494 231.059 65.0617 233.233 67.1891 235.575C67.6397 236.072 68.4447 235.466 67.9862 234.957C65.4792 232.172 63.2921 229.238 61.3823 226.147C61.2634 226.583 61.1436 227.021 61.0248 227.457C61.3296 227.935 61.624 228.423 61.9434 228.892C61.5937 228.574 61.2406 228.263 60.8901 227.952C60.7881 228.323 60.6871 228.693 60.5858 229.062Z" fill="black"/>
<path d="M110.723 188.062C110.339 188.046 109.947 188.043 109.538 188.077C109.393 188.089 109.282 188.193 109.205 188.321C108.701 188.166 108.187 188.028 107.655 187.914C107.65 187.912 107.646 187.912 107.643 187.91C107.603 187.901 107.565 187.89 107.525 187.881C106.988 187.77 106.728 188.668 107.244 188.843C107.596 188.962 107.948 189.08 108.299 189.194C108.289 189.312 108.308 189.433 108.371 189.54C108.374 189.545 108.378 189.548 108.381 189.554C108.179 189.604 107.978 189.655 107.755 189.732C107.291 189.892 107.374 190.658 107.848 190.676C107.959 190.68 108.07 190.685 108.18 190.689C107.991 190.85 107.824 191.045 107.698 191.289C107.523 191.628 107.466 191.962 107.486 192.286C104.116 194.887 100.236 196.523 96.0134 197.259C95.6869 197.64 95.3601 198.02 95.033 198.398C99.7315 197.763 104.058 196.079 107.786 193.267C108.248 194.129 109.136 194.872 109.768 195.37C109.86 195.443 109.963 195.499 110.058 195.568C109.891 196.334 109.908 197.127 110.023 197.918C109.946 198.034 109.916 198.175 109.991 198.332C110.042 198.439 110.101 198.539 110.154 198.645C110.219 198.95 110.294 199.25 110.376 199.55C109.921 199.494 109.455 199.467 108.975 199.476C108.952 199.476 108.928 199.488 108.904 199.495C108.491 198.995 108.059 198.503 107.605 198.022C107.175 197.568 106.496 198.076 106.796 198.611C107.354 199.61 107.951 200.575 108.579 201.512C108.639 202.065 108.733 202.602 108.892 203.111C108.575 203.098 108.256 203.394 108.368 203.758C108.474 204.099 108.601 204.433 108.711 204.772C108.456 206.909 109.256 209.035 110.794 210.503C110.946 210.883 111.086 211.268 111.245 211.644C110.595 210.785 109.918 209.94 109.204 209.108C108.902 208.757 108.274 208.968 108.299 209.445C108.431 211.822 108.802 214.114 109.414 216.344C107.848 213.861 106.268 211.351 104.68 208.811C104.432 208.414 103.697 208.678 103.766 209.128C104.039 210.901 104.438 212.633 104.939 214.324C103.626 212.321 102.225 210.343 100.726 208.391C99.1457 205.807 97.4581 203.244 95.6513 200.7C95.3257 200.242 94.5555 200.584 94.75 201.097C96.2766 205.116 97.9862 209.044 99.8276 212.868C97.8591 210.231 95.7017 207.659 93.3527 205.146C92.9863 204.755 92.2385 204.983 92.4509 205.54C93.899 209.34 95.6465 213.005 97.6707 216.484C95.1921 213.756 92.58 211.046 89.8077 208.382C89.4447 208.033 88.7885 208.433 88.9973 208.875C90.126 211.274 91.3566 213.617 92.6454 215.914C91.7038 215.005 90.7046 214.129 89.6437 213.288C89.2264 212.959 88.6981 213.332 88.8396 213.798C89.3653 215.525 89.9978 217.212 90.7264 218.851C88.9577 216.7 87.054 214.611 85.0163 212.587C84.6394 212.211 84.0391 212.649 84.212 213.096C84.7555 214.501 85.355 215.884 85.9952 217.244C84.5086 215.561 82.9032 213.949 81.1815 212.413C80.7985 212.071 80.1743 212.454 80.3795 212.926C81.0257 214.417 81.7457 215.87 82.5231 217.289C81.9659 216.794 81.3964 216.307 80.8077 215.836C80.3098 215.438 81.7045 219.387 82.5788 220.796C80.9633 219.095 79.3145 217.405 77.6066 215.763C77.24 215.41 76.5811 215.83 76.812 216.297C77.471 217.634 78.183 218.941 78.9342 220.218C77.9014 219.256 76.8414 218.315 75.7483 217.407C75.3625 217.086 74.7387 217.46 74.9577 217.953C76.1133 220.552 77.4698 223.038 79.0146 225.401C77.4717 224.116 75.8435 222.925 74.119 221.854C73.7264 221.609 73.2816 222.091 73.4493 222.493C74.5826 225.233 75.929 227.858 77.4891 230.366C75.2465 228.138 73.0004 225.906 70.7629 223.694C70.3983 223.334 69.7564 223.806 69.987 224.277C71.4861 227.344 73.238 230.253 75.2238 233.01C75.5254 232.865 75.8273 232.72 76.1289 232.574C74.7754 230.705 73.5339 228.758 72.4088 226.741C74.1317 228.449 75.8563 230.164 77.5806 231.877C78.1144 231.622 78.6479 231.366 79.1833 231.111C77.6053 228.737 76.2143 226.256 75.0437 223.653C77.6372 225.407 79.9917 227.439 82.1262 229.712C82.4469 229.561 82.7663 229.41 83.087 229.258C80.6657 226.32 78.5876 223.111 76.8837 219.69C78.4613 221.087 79.9662 222.551 81.406 224.064C82.4664 225.583 83.6017 227.046 84.7956 228.454C85.219 228.256 85.6409 228.057 86.0646 227.86C84.8135 226.32 83.5066 224.82 82.1294 223.375C81.1081 221.903 80.1553 220.381 79.2724 218.812C81.9014 221.452 84.415 224.166 86.8024 226.935C86.9118 227.078 87.0275 227.216 87.1369 227.359C87.4557 227.21 87.7745 227.062 88.0936 226.914C87.9262 226.718 87.7619 226.519 87.5936 226.325C85.6883 223.818 83.9253 221.177 82.3152 218.43C83.0525 219.104 83.7614 219.799 84.4409 220.515C85.8023 222.623 87.3247 224.623 88.985 226.502C89.3236 226.345 89.6624 226.189 90.001 226.033C88.6075 223.84 87.0169 221.799 85.2253 219.903C84.185 218.288 83.2406 216.608 82.3879 214.877C84.5865 217.025 86.5666 219.308 88.3263 221.725C89.096 223.072 89.9296 224.381 90.7938 225.668C91.1257 225.515 91.4588 225.362 91.7906 225.209C90.9794 223.848 90.1227 222.511 89.1874 221.225C88.0615 219.254 87.0446 217.219 86.1386 215.13C88.9184 218.07 91.4178 221.144 93.6477 224.358C93.9601 224.215 94.2716 224.073 94.584 223.93C92.83 221.162 91.4048 218.216 90.3297 215.12C92.1107 216.658 93.7009 218.31 95.1082 220.075C95.6963 221.02 96.2931 221.953 96.9028 222.876C97.2604 222.713 97.6181 222.551 97.9769 222.388C97.3548 221.428 96.692 220.496 95.9774 219.593C94.2791 216.873 92.6982 214.054 91.2407 211.156C94.559 214.466 97.6537 217.823 100.526 221.232C100.882 221.072 101.238 220.909 101.593 220.749C98.7934 216.722 96.3812 212.371 94.4401 207.786C97.8626 211.682 100.822 215.731 103.372 219.942C103.7 219.793 104.03 219.645 104.358 219.495C101.797 214.852 99.4706 210.002 97.3976 204.998C98.1973 206.21 98.9795 207.422 99.728 208.644C99.7305 208.655 99.7301 208.664 99.7338 208.675C101.154 212.386 102.943 215.899 105.068 219.173C105.484 218.984 105.902 218.794 106.318 218.604C106.158 218.276 106.006 217.945 105.843 217.618C106.034 217.932 106.219 218.248 106.404 218.565C106.722 218.42 107.041 218.274 107.36 218.128C106.466 216.037 105.767 213.86 105.265 211.61C106.488 213.563 107.705 215.498 108.916 217.416C109.467 217.164 110.019 216.909 110.569 216.654C110.026 214.805 109.632 212.914 109.429 210.963C110.646 212.472 111.759 214.024 112.783 215.625C113.155 215.452 113.526 215.277 113.898 215.101C113.344 213.944 112.805 212.776 112.302 211.588C112.864 211.886 113.473 212.119 114.135 212.254C114.258 212.279 114.39 212.229 114.501 212.15C114.947 212.826 115.375 213.513 115.803 214.198C116.132 214.041 116.461 213.882 116.791 213.724C115.969 212.018 115.196 210.286 114.48 208.517C114.898 208.916 115.322 209.305 115.758 209.688C116.146 210.029 116.642 209.518 116.537 209.111C116.411 208.633 116.273 208.16 116.126 207.692C116.843 208.527 117.596 209.334 118.375 210.119C118.408 209.68 118.44 209.238 118.472 208.796C117.227 207.491 116.071 206.119 115.003 204.674C114.909 204.457 114.805 204.245 114.705 204.033C115.122 204.505 115.577 204.952 116.11 205.337C116.497 205.617 117.029 205.184 116.879 204.738C116.322 203.086 115.303 201.776 113.991 200.88C113.891 200.58 113.803 200.273 113.737 199.949C113.639 199.461 113.474 198.71 113.48 198.043C115.391 201.119 117.078 204.322 118.555 207.625C118.602 206.929 118.649 206.228 118.695 205.525C118.621 205.369 118.555 205.208 118.479 205.052C118.557 205.08 118.642 205.077 118.725 205.061C118.752 204.626 118.779 204.189 118.806 203.751C117.785 201.787 116.649 199.91 115.401 198.115C115.97 198.261 116.545 198.39 117.132 198.478C117.497 198.533 117.782 198.072 117.659 197.747C116.96 195.906 115.396 195.093 113.462 195.51C112.924 194.834 112.384 194.162 111.809 193.512C111.749 193.446 111.677 193.403 111.602 193.376C111.483 193.208 111.361 193.04 111.241 192.874C112.808 194.158 114.664 195.031 116.749 195.408C117.093 195.471 117.417 194.971 117.269 194.659C117.147 194.401 117.013 194.153 116.872 193.913C117.489 194.111 118.116 194.288 118.765 194.418C118.932 194.451 119.133 194.378 119.273 194.242C119.284 193.941 119.295 193.637 119.306 193.333C118.229 189.277 114.559 187.272 110.723 188.062ZM112.109 208.696C112.104 208.792 112.108 208.886 112.1 208.983C111.81 208.564 111.566 208.127 111.361 207.677C111.611 208.016 111.862 208.355 112.109 208.696ZM113.551 211.106C113.193 210.982 112.859 210.819 112.545 210.635C112.715 210.589 112.861 210.465 112.905 210.262C112.93 210.14 112.939 210.022 112.96 209.9C113.118 210.125 113.27 210.354 113.425 210.579C113.47 210.754 113.512 210.929 113.551 211.106ZM110.984 201.594C111.057 201.836 111.143 202.075 111.217 202.317C111.063 202.2 110.898 202.092 110.725 201.989C110.458 201.58 110.184 201.175 109.892 200.779C110.074 200.66 110.342 200.601 110.678 200.587C110.781 200.931 110.888 201.268 110.984 201.594ZM111.335 194.857C111.496 195.09 111.656 195.323 111.817 195.555C111.609 195.43 111.403 195.299 111.2 195.161C111.24 195.057 111.287 194.956 111.335 194.857ZM109.033 193.317C109.241 193.014 109.449 192.71 109.655 192.404C109.659 192.411 109.66 192.418 109.664 192.425C110.018 192.941 110.373 193.457 110.728 193.972C110.6 194.167 110.489 194.366 110.395 194.567C110.207 194.418 110.017 194.271 109.837 194.109C109.569 193.847 109.3 193.582 109.033 193.317ZM115.077 207.716C114.562 207.223 114.065 206.713 113.578 206.195C113.398 205.709 113.215 205.225 113.044 204.734C112.791 204.002 112.413 203.081 112.043 202.081C112.686 203.135 113.378 204.149 114.101 205.136C114.466 205.976 114.788 206.838 115.077 207.716ZM112.8 200.209C112.705 200.166 112.601 200.143 112.503 200.103C112.015 199.367 111.495 198.644 110.937 197.94C110.868 197.329 110.867 196.737 110.946 196.175C111.521 196.543 112.114 196.871 112.727 197.154C112.579 198.211 112.606 199.236 112.8 200.209ZM116.201 197.274C115.599 197.145 115.007 196.977 114.427 196.776C114.361 196.687 114.299 196.594 114.231 196.505C114.873 196.165 115.652 196.617 116.201 197.274ZM110.788 191.061C111.066 191.052 111.431 191.138 111.779 191.249C112.821 192.039 113.93 192.708 115.107 193.239C115.359 193.515 115.592 193.812 115.803 194.133C113.848 193.585 112.161 192.53 110.788 191.061ZM115.674 192.338C115.081 191.724 114.398 191.223 113.626 190.852C114.103 190.992 114.579 191.129 115.055 191.266C115.473 191.386 115.951 190.789 115.625 190.414C115.237 189.966 114.821 189.587 114.379 189.269C116.141 189.863 117.595 191.225 118.255 193.211C117.362 192.988 116.501 192.698 115.674 192.338Z" fill="black"/>
<path d="M75.2188 233.012C73.8136 231.705 72.4078 230.401 71.0054 229.106C70.5299 228.668 70.0269 229.329 70.2998 229.823C70.3458 229.907 70.3992 229.983 70.4464 230.067C68.995 228.654 67.5139 227.288 65.9709 226.019C65.5186 225.648 64.9211 226.258 65.2708 226.749C65.6021 227.214 65.9578 227.658 66.3001 228.116C65.6862 227.636 65.0819 227.146 64.4531 226.695C64.2468 226.546 64.0373 226.571 63.8855 226.681C63.1964 225.99 62.4943 225.319 61.7883 224.664C61.6853 225.042 61.5811 225.421 61.4784 225.8C62.6415 226.879 63.7855 228.009 64.8935 229.198C66.1272 230.983 67.5343 232.62 69.1358 234.149C69.5681 234.56 70.2122 233.909 69.8408 233.43C68.8751 232.189 67.8724 230.998 66.8518 229.84C67.7867 230.608 68.6992 231.413 69.5977 232.245C70.3059 233.069 71.037 233.877 71.7789 234.677C72.1641 234.49 72.5493 234.303 72.9333 234.117C72.0743 233.224 71.1995 232.35 70.3014 231.515C70.0471 231.218 69.8022 230.912 69.5534 230.611C70.7172 231.733 71.8451 232.903 72.9458 234.11C73.2702 233.953 73.5958 233.795 73.9205 233.639C73.6291 233.23 73.3466 232.816 73.0674 232.4C73.4576 232.762 73.8469 233.124 74.237 233.486C74.5639 233.328 74.8907 233.17 75.2188 233.012Z" fill="black"/>
<path d="M32.6526 159.687C36.6432 162.745 40.6504 165.848 44.7291 169.135C44.5615 168.699 53.5011 141.213 69.67 148.696C78.2212 153.567 72.2613 167.86 65.3063 183.915C58.1814 199.525 50.0613 216.896 50.3584 217.668C53.267 222.987 56.2147 228.409 59.2169 233.974C74.4441 224.253 90.6412 217.061 106.577 209.188C106.732 200.841 106.834 192.358 106.765 183.428C97.4051 191.218 86.948 196.148 76.9109 202.172C76.9812 202.356 102.386 161.014 85.7601 138.018C71.2005 118.341 39.9155 119.338 32.6526 159.687Z" fill="#EAFBF9" stroke="black" stroke-width="0.8066" stroke-miterlimit="10" stroke-linecap="round" stroke-linejoin="round"/>
<path d="M52.4217 132.109C52.4217 132.109 66.1778 126.426 76.2359 132.725C86.5634 139.193 88.124 155.735 87.918 159.334C87.1488 172.754 81.9298 185.83 81.9298 185.83" stroke="black" stroke-width="0.8506" stroke-miterlimit="10" stroke-linecap="round" stroke-linejoin="round"/>
<path d="M86.4183 214.149L103.669 207.16L105.014 191.054" fill="white"/>
<path d="M86.4183 214.149L103.669 207.16L105.014 191.054" stroke="black" stroke-width="0.8066" stroke-miterlimit="10" stroke-linecap="round" stroke-linejoin="round"/>
</g>
</svg>
